# Houscaper tile from 22.3dm Cube Frame group 102
# signature 00000222 variant 0
g floor_1
v 0.3 0.3 0.54
v 0 0.3 0.54
v 0 0.9 0.54
v 0.3 0.9 0.54
v 0.9 0.9 0.54
v 0.9 0.3 0.54
v 0.9 0 0.54
v 0.3 0 0.54
v 0 0.3 0.54
v 0 0.3 0.34
v 0.3 0.3 0.54
v 0.3 0.3 0.34
v 0 0.9 0.54
v 0 0.9 0.34
v 0 0.3 0.54
v 0 0.3 0.34
v 0.3 0.9 0.54
v 0.3 0.9 0.34
v 0 0.9 0.54
v 0 0.9 0.34
v 0.9 0.9 0.54
v 0.9 0.9 0.34
v 0.3 0.9 0.54
v 0.3 0.9 0.34
v 0.9 0.3 0.54
v 0.9 0.3 0.34
v 0.9 0.9 0.54
v 0.9 0.9 0.34
v 0.9 0 0.54
v 0.9 0 0.34
v 0.9 0.3 0.54
v 0.9 0.3 0.34
v 0.3 0 0.54
v 0.3 0 0.34
v 0.9 0 0.54
v 0.9 0 0.34
v 0.3 0.3 0.54
v 0.3 0.3 0.34
v 0.3 0 0.54
v 0.3 0 0.34
v 0.3 0.3 0.34
v 0 0.3 0.34
v 0 0.9 0.34
v 0.3 0.9 0.34
v 0.9 0.9 0.34
v 0.9 0.3 0.34
v 0.9 0 0.34
v 0.3 0 0.34
f 4 3 2 1
f 1 6 5 4
f 8 7 6 1
f 10 12 11 9
f 14 16 15 13
f 18 20 19 17
f 22 24 23 21
f 26 28 27 25
f 30 32 31 29
f 34 36 35 33
f 38 40 39 37
f 44 41 42 43
f 41 44 45 46
f 48 41 46 47
