# Houscaper tile from 22.3dm Cube Frame group 149
# signature 01110100 variant 1
g arc_frame_1
v 0.7999999999999418 0.7999999999999636 0.12676192474365236
v 0.7999999999999418 0.7999999999999636 0.18676191711425782
v 0.7999999999999418 0.8999999999999636 0.12676192474365236
v 0.7999999999999418 0.8999999999999636 0.12676192474365236
v 0.8999999999999418 0.8999999999999636 0.12676192474365236
v 0.7999999999999418 0.7999999999999636 0.12676192474365236
v 0.8999999999999418 0.7999999999999636 0.12676192474365236
v 0.7999999999999418 0.7999999999999636 0.18676191711425782
v 0.8999999999999418 0.7999999999999636 0.18676191711425782
v 0.7999999999999418 0.8999999999999636 0.12676192474365236
v 0.8999999999999418 0.8999999999999636 0.12676192474365236
v 0.7999999999999418 0.7999999999999636 0.12676192474365236
v 0.8999999999999418 0.7999999999999636 0.12676192474365236
v 0.7999999999999418 0.7999999999999636 0.18676191711425782
v 0.8999999999999418 0.7999999999999636 0.18676191711425782
v 0.8999999999999418 0.7999999999999636 0.12676192474365236
v 0.8999999999999418 0.7999999999999636 0.18676191711425782
v 0.8999999999999418 0.8999999999999636 0.12676192474365236
f 2 3 1
f 5 7 6 4
f 9 11 10 8
f 13 15 14 12
f 17 16 18
g arc_frame_2
v 0.4999999999999418 0.09999999999996362 0
v 0.2999999999999418 0.09999999999996362 0
v 0.4999999999999418 -3.637978807091713E-14 0
v 0.2999999999999418 -3.637978807091713E-14 0
v 0.4999999999999418 -3.637978807091713E-14 0
v 0.4999999999999418 -3.637978807091713E-14 0.54
v 0.4999999999999418 0.09999999999996362 0
v 0.4999999999999418 0.09999999999996362 0.54
v 0.2999999999999418 -3.637978807091713E-14 0
v 0.2999999999999418 -3.637978807091713E-14 0.54
v 0.4999999999999418 -3.637978807091713E-14 0
v 0.4999999999999418 -3.637978807091713E-14 0.54
v 0.2999999999999418 0.09999999999996362 0
v 0.2999999999999418 0.09999999999996362 0.54
v 0.2999999999999418 -3.637978807091713E-14 0
v 0.2999999999999418 -3.637978807091713E-14 0.54
v 0.4999999999999418 0.09999999999996362 0
v 0.4999999999999418 0.09999999999996362 0.54
v 0.2999999999999418 0.09999999999996362 0
v 0.2999999999999418 0.09999999999996362 0.54
v 0.4999999999999418 0.09999999999996362 0.54
v 0.2999999999999418 0.09999999999996362 0.54
v 0.4999999999999418 -3.637978807091713E-14 0.54
v 0.2999999999999418 -3.637978807091713E-14 0.54
f 20 19 21 22
f 24 23 25 26
f 28 27 29 30
f 32 31 33 34
f 36 35 37 38
f 40 42 41 39
g arc_frame_3
v 0.8999999999999418 0.8999999999999636 0.12676192474365236
v 0.8999999999999418 0.5999999999999637 0.54
v 0.8999999999999418 0.3999999999999636 0.54
v 0.8999999999999418 0.3999999999999636 0.4267619323730469
v 0.8999999999999418 0.8999999999999636 0.36
v 0.7999999999999418 0.3999999999999636 0.4267619323730469
v 0.8999999999999418 0.8999999999999636 0.12676192474365236
v 0.8999999999999418 0.3999999999999636 0.4267619323730469
v 0.7999999999999418 0.8999999999999636 0.12676192474365236
v 0.7999999999999418 0.8999999999999636 0.12676192474365236
v 0.7999999999999418 0.3999999999999636 0.4267619323730469
v 0.7999999999999418 0.3999999999999636 0.54
v 0.7999999999999418 0.5999999999999637 0.54
v 0.7999999999999418 0.8999999999999636 0.36
v 0.8999999999999418 0.8999999999999636 0.36
v 0.8999999999999418 0.5999999999999637 0.54
v 0.7999999999999418 0.5999999999999637 0.54
v 0.7999999999999418 0.8999999999999636 0.36
f 45 46 43
f 44 45 47
f 43 47 45
f 48 51 49 50
f 54 55 56
f 53 54 52
f 56 52 54
f 58 57 60 59
g arc_frame_4
v 0.09999999999994179 0.8999999999999636 0.36
v 0.09999999999994179 0.8999999999999636 0.12676192474365236
v 0.7999999999999418 0.8999999999999636 0.36
v 0.7999999999999418 0.8999999999999636 0.12676192474365236
v 0.7999999999999418 0.8999999999999636 0.36
v 0.7999999999999418 0.7999999999999636 0.36
v 0.09999999999994179 0.8999999999999636 0.36
v 0.09999999999994179 0.7999999999999636 0.36
v 0.7999999999999418 0.8999999999999636 0.12676192474365236
v 0.7999999999999418 0.7999999999999636 0.12676192474365236
v 0.7999999999999418 0.8999999999999636 0.36
v 0.7999999999999418 0.7999999999999636 0.36
v 0.09999999999994179 0.8999999999999636 0.12676192474365236
v 0.09999999999994179 0.7999999999999636 0.12676192474365236
v 0.7999999999999418 0.8999999999999636 0.12676192474365236
v 0.7999999999999418 0.7999999999999636 0.12676192474365236
v 0.09999999999994179 0.8999999999999636 0.36
v 0.09999999999994179 0.7999999999999636 0.36
v 0.09999999999994179 0.8999999999999636 0.12676192474365236
v 0.09999999999994179 0.7999999999999636 0.12676192474365236
v 0.09999999999994179 0.7999999999999636 0.36
v 0.09999999999994179 0.7999999999999636 0.12676192474365236
v 0.7999999999999418 0.7999999999999636 0.36
v 0.7999999999999418 0.7999999999999636 0.12676192474365236
f 62 61 63 64
f 66 65 67 68
f 70 69 71 72
f 74 73 75 76
f 78 77 79 80
f 82 84 83 81
g arc_frame_5
v -5.820766091346741E-14 0.49999999999996364 -0.11323807525634766
v 0.09999999999994179 0.49999999999996364 -0.11323807525634766
v 0.09999999999994179 0.8999999999999636 0.12676192474365236
v -5.820766091346741E-14 0.8999999999999636 0.12676192474365236
v -5.820766091346741E-14 0.29999999999996363 -9.947598300641404E-16
v -5.820766091346741E-14 0.8999999999999636 0.36
v -5.820766091346741E-14 0.49999999999996364 -0.11323807525634766
v -5.820766091346741E-14 0.8999999999999636 0.12676192474365236
v -5.820766091346741E-14 0.49999999999996364 -9.947598300641404E-16
v 0.09999999999994179 0.29999999999996363 -9.947598300641404E-16
v 0.09999999999994179 0.8999999999999636 0.36
v -5.820766091346741E-14 0.8999999999999636 0.36
v -5.820766091346741E-14 0.29999999999996363 -9.947598300641404E-16
v 0.09999999999994179 0.29999999999996363 -9.947598300641404E-16
v 0.09999999999994179 0.8999999999999636 0.36
v 0.09999999999994179 0.8999999999999636 0.12676192474365236
v 0.09999999999994179 0.49999999999996364 -9.947598300641404E-16
v 0.09999999999994179 0.49999999999996364 -0.11323807525634766
f 88 87 86 85
f 93 89 90
f 92 91 93
f 90 92 93
f 95 96 97 94
f 101 102 100
f 99 98 101
f 100 99 101
g arc_frame_6
v 0.09999999999994179 0.8999999999999636 0.36
v 0.09999999999994179 0.7999999999999636 0.36
v 0.09999999999994179 0.7999999999999636 0.3
v 0.09999999999994179 0.7999999999999636 0.3
v -5.820766091346741E-14 0.7999999999999636 0.3
v 0.09999999999994179 0.8999999999999636 0.36
v -5.820766091346741E-14 0.8999999999999636 0.36
v 0.09999999999994179 0.7999999999999636 0.36
v -5.820766091346741E-14 0.7999999999999636 0.36
v 0.09999999999994179 0.7999999999999636 0.3
v -5.820766091346741E-14 0.7999999999999636 0.3
v 0.09999999999994179 0.8999999999999636 0.36
v -5.820766091346741E-14 0.8999999999999636 0.36
v 0.09999999999994179 0.7999999999999636 0.36
v -5.820766091346741E-14 0.7999999999999636 0.36
v -5.820766091346741E-14 0.8999999999999636 0.36
v -5.820766091346741E-14 0.7999999999999636 0.36
v -5.820766091346741E-14 0.7999999999999636 0.3
f 104 105 103
f 107 109 108 106
f 111 113 112 110
f 115 117 116 114
f 119 118 120
