# Houscaper tile from 22.3dm Cube Frame group 156
# signature 01110222 variant 1
g arc_frame_1
v 0 0.30000000000000726 0
v 0 0.30000000000000726 0.54
v 0.3 0.30000000000000726 0
v 0.3 0.30000000000000726 0.54
f 4 2 1 3
g arc_frame_2
v 0.3 7.275957614183426E-15 0
v 0.3 7.275957614183426E-15 0.54
v 0.3 0.30000000000000726 0
v 0.3 0.30000000000000726 0.54
f 8 6 5 7
g arc_frame_3
v 0.1 0.5000000000000073 0
v 0.1 0.30000000000000726 0
v 0 0.5000000000000073 0
v 0 0.30000000000000726 0
v 0 0.5000000000000073 0
v 0 0.5000000000000073 0.54
v 0.1 0.5000000000000073 0
v 0.1 0.5000000000000073 0.54
v 0 0.30000000000000726 0
v 0 0.30000000000000726 0.54
v 0 0.5000000000000073 0
v 0 0.5000000000000073 0.54
v 0.1 0.30000000000000726 0
v 0.1 0.30000000000000726 0.54
v 0 0.30000000000000726 0
v 0 0.30000000000000726 0.54
v 0.1 0.5000000000000073 0
v 0.1 0.5000000000000073 0.54
v 0.1 0.30000000000000726 0
v 0.1 0.30000000000000726 0.54
v 0.1 0.5000000000000073 0.54
v 0.1 0.30000000000000726 0.54
v 0 0.5000000000000073 0.54
v 0 0.30000000000000726 0.54
f 10 12 11 9
f 14 16 15 13
f 18 20 19 17
f 22 24 23 21
f 26 28 27 25
f 30 29 31 32
g arc_frame_4
v 0.5 0.10000000000000728 0
v 0.3 0.10000000000000728 0
v 0.5 7.275957614183426E-15 0
v 0.3 7.275957614183426E-15 0
v 0.5 7.275957614183426E-15 0
v 0.5 7.275957614183426E-15 0.54
v 0.5 0.10000000000000728 0
v 0.5 0.10000000000000728 0.54
v 0.3 7.275957614183426E-15 0
v 0.3 7.275957614183426E-15 0.54
v 0.5 7.275957614183426E-15 0
v 0.5 7.275957614183426E-15 0.54
v 0.3 0.10000000000000728 0
v 0.3 0.10000000000000728 0.54
v 0.3 7.275957614183426E-15 0
v 0.3 7.275957614183426E-15 0.54
v 0.5 0.10000000000000728 0
v 0.5 0.10000000000000728 0.54
v 0.3 0.10000000000000728 0
v 0.3 0.10000000000000728 0.54
v 0.5 0.10000000000000728 0.54
v 0.3 0.10000000000000728 0.54
v 0.5 7.275957614183426E-15 0.54
v 0.3 7.275957614183426E-15 0.54
f 34 33 35 36
f 38 37 39 40
f 42 41 43 44
f 46 45 47 48
f 50 49 51 52
f 54 56 55 53
g floor_5
v 0.3 0.9000000000000073 0.54
v 0.9 0.9000000000000073 0.54
v 0.9 0.30000000000000726 0.54
v 0.9 7.275957614183426E-15 0.54
v 0.3 7.275957614183426E-15 0.54
v 0.3 0.30000000000000726 0.54
v 0 0.30000000000000726 0.54
v 0 0.9000000000000073 0.54
v 0.9 0.9000000000000073 0.54
v 0.9 0.9000000000000073 0.36
v 0.3 0.9000000000000073 0.54
v 0.3 0.9000000000000073 0.36
v 0.9 0.30000000000000726 0.54
v 0.9 0.30000000000000726 0.36
v 0.9 0.9000000000000073 0.54
v 0.9 0.9000000000000073 0.36
v 0.9 7.275957614183426E-15 0.54
v 0.9 7.275957614183426E-15 0.36
v 0.9 0.30000000000000726 0.54
v 0.9 0.30000000000000726 0.36
v 0.3 7.275957614183426E-15 0.54
v 0.3 7.275957614183426E-15 0.36
v 0.9 7.275957614183426E-15 0.54
v 0.9 7.275957614183426E-15 0.36
v 0.3 0.30000000000000726 0.54
v 0.3 0.30000000000000726 0.36
v 0.3 7.275957614183426E-15 0.54
v 0.3 7.275957614183426E-15 0.36
v 0 0.30000000000000726 0.54
v 0 0.30000000000000726 0.36
v 0.3 0.30000000000000726 0.54
v 0.3 0.30000000000000726 0.36
v 0 0.9000000000000073 0.54
v 0 0.9000000000000073 0.36
v 0 0.30000000000000726 0.54
v 0 0.30000000000000726 0.36
v 0.3 0.9000000000000073 0.54
v 0.3 0.9000000000000073 0.36
v 0 0.9000000000000073 0.54
v 0 0.9000000000000073 0.36
v 0.3 0.9000000000000073 0.36
v 0.9 0.9000000000000073 0.36
v 0.9 0.30000000000000726 0.36
v 0.9 7.275957614183426E-15 0.36
v 0.3 7.275957614183426E-15 0.36
v 0.3 0.30000000000000726 0.36
v 0 0.30000000000000726 0.36
v 0 0.9000000000000073 0.36
f 63 62 57 64
f 62 59 58 57
f 59 62 61 60
f 66 68 67 65
f 70 72 71 69
f 74 76 75 73
f 78 80 79 77
f 82 84 83 81
f 86 88 87 85
f 90 92 91 89
f 94 96 95 93
f 103 104 97 102
f 102 97 98 99
f 99 100 101 102
