# Houscaper tile from 22.3dm Cube Frame group 126
# signature 00110000 variant 4
g arc_frame_1
v 0.1 0.5 -0.11323807525634766
v 0 0.5 -0.11323807525634766
v 0 0.9 0.12676192474365236
v 0.1 0.9 0.12676192474365236
v 0.1 0.3 -9.947598300641404E-16
v 0.1 0.9 0.36
v 0.1 0.5 -0.11323807525634766
v 0.1 0.9 0.12676192474365236
v 0.1 0.5 -9.947598300641404E-16
v 0 0.3 -9.947598300641404E-16
v 0 0.9 0.36
v 0.1 0.9 0.36
v 0.1 0.3 -9.947598300641404E-16
v 0 0.3 -9.947598300641404E-16
v 0 0.9 0.36
v 0 0.9 0.12676192474365236
v 0 0.5 -9.947598300641404E-16
v 0 0.5 -0.11323807525634766
f 4 1 2 3
f 9 6 5
f 8 9 7
f 6 9 8
f 11 10 13 12
f 17 16 18
f 15 17 14
f 16 17 15
g arc_frame_2
v 0.9 0.5 -0.11323807525634766
v 0.8 0.5 -0.11323807525634766
v 0.8 0.9 0.12676192474365236
v 0.9 0.9 0.12676192474365236
v 0.9 0.3 -9.947598300641404E-16
v 0.9 0.9 0.36
v 0.9 0.5 -0.11323807525634766
v 0.9 0.9 0.12676192474365236
v 0.9 0.5 -9.947598300641404E-16
v 0.8 0.3 -9.947598300641404E-16
v 0.8 0.9 0.36
v 0.9 0.9 0.36
v 0.9 0.3 -9.947598300641404E-16
v 0.8 0.3 -9.947598300641404E-16
v 0.8 0.9 0.36
v 0.8 0.9 0.12676192474365236
v 0.8 0.5 -9.947598300641404E-16
v 0.8 0.5 -0.11323807525634766
f 22 19 20 21
f 27 24 23
f 26 27 25
f 24 27 26
f 29 28 31 30
f 35 34 36
f 33 35 32
f 34 35 33
g arc_frame_3
v 0.1 0.9 0.36
v 0.1 0.9 0.12676192474365236
v 0.8 0.9 0.36
v 0.8 0.9 0.12676192474365236
f 40 38 37 39
g arc_frame_4
v 0.1 0.9 0.36
v 0.1 0.9 0.12676192474365236
v 0.8 0.9 0.36
v 0.8 0.9 0.12676192474365236
v 0.8 0.9 0.36
v 0.8 0.8 0.36
v 0.1 0.9 0.36
v 0.1 0.8 0.36
v 0.8 0.9 0.12676192474365236
v 0.8 0.8 0.12676192474365236
v 0.8 0.9 0.36
v 0.8 0.8 0.36
v 0.1 0.9 0.12676192474365236
v 0.1 0.8 0.12676192474365236
v 0.8 0.9 0.12676192474365236
v 0.8 0.8 0.12676192474365236
v 0.1 0.9 0.36
v 0.1 0.8 0.36
v 0.1 0.9 0.12676192474365236
v 0.1 0.8 0.12676192474365236
v 0.1 0.8 0.36
v 0.1 0.8 0.12676192474365236
v 0.8 0.8 0.36
v 0.8 0.8 0.12676192474365236
f 42 41 43 44
f 46 45 47 48
f 50 49 51 52
f 54 53 55 56
f 58 57 59 60
f 62 64 63 61
g arc_frame_5
v 0.8 0.8 0.36
v 0.8 0.8 0.3
v 0.8 0.9 0.36
f 66 65 67
g arc_frame_6
v 0.1 0.9 0.36
v 0.1 0.8 0.36
v 0.1 0.8 0.3
v 0.1 0.8 0.3
v 0 0.8 0.3
v 0.1 0.9 0.36
v 0 0.9 0.36
v 0.1 0.8 0.36
v 0 0.8 0.36
v 0.1 0.8 0.3
v 0 0.8 0.3
v 0.1 0.9 0.36
v 0 0.9 0.36
v 0.1 0.8 0.36
v 0 0.8 0.36
v 0 0.9 0.36
v 0 0.8 0.36
v 0 0.8 0.3
f 69 70 68
f 72 74 73 71
f 76 78 77 75
f 80 82 81 79
f 84 83 85
g arc_frame_7
v 0.8 0.9 0.36
v 0.8 0.8 0.36
v 0.8 0.8 0.3
v 0.8 0.8 0.3
v 0.9 0.8 0.3
v 0.8 0.9 0.36
v 0.9 0.9 0.36
v 0.8 0.8 0.36
v 0.9 0.8 0.36
v 0.8 0.8 0.3
v 0.9 0.8 0.3
v 0.8 0.9 0.36
v 0.9 0.9 0.36
v 0.8 0.8 0.36
v 0.9 0.8 0.36
v 0.9 0.9 0.36
v 0.9 0.8 0.36
v 0.9 0.8 0.3
f 87 86 88
f 90 89 91 92
f 94 93 95 96
f 98 97 99 100
f 102 103 101
