# Houscaper tile from 22.3dm Cube Frame group 93
# signature 00050001 variant 0
g arc_frame_1
v 0.6 0.9 0.54
v 0.6 0.9 0.27
v 0.6 0.3 0.54
v 0.6 0.3 0.27
v 0.6 0.3 0.54
v 0.6 0.3 0.27
v 0 0.3 0.54
v 0 0.3 0.27
f 2 1 3 4
f 6 5 7 8
g window_frame_2
v 0.65 0.9 0.27
v 0.65 0.7375 0.27
v 0.65 0.5750000000000001 0.27
v 0.65 0.41250000000000003 0.27
v 0.65 0.25 0.27
v 0.6375000000000001 0.9 0.27
v 0.6375000000000001 0.7375 0.27
v 0.6375000000000001 0.5750000000000001 0.27
v 0.6375000000000001 0.41250000000000003 0.27
v 0.625 0.9 0.27
v 0.625 0.7375 0.27
v 0.625 0.5750000000000001 0.27
v 0.625 0.41250000000000003 0.27
v 0.6125 0.9 0.27
v 0.6125 0.7375 0.27
v 0.6125 0.5750000000000001 0.27
v 0.6125 0.41250000000000003 0.27
v 0.6 0.9 0.27
v 0.6 0.7375 0.27
v 0.6 0.5750000000000001 0.27
v 0.6 0.41250000000000003 0.27
v 0.6 0.25 0.27
v 0.6 0.3 0.27
v 0 0.3 0.27
v 0.15 0.3 0.27
v 0.3 0.3 0.27
v 0.45 0.3 0.27
v 0.6 0.3 0.27
v 0 0.28750000000000003 0.27
v 0.15 0.28750000000000003 0.27
v 0.3 0.28750000000000003 0.27
v 0.45 0.28750000000000003 0.27
v 0 0.275 0.27
v 0.15 0.275 0.27
v 0.3 0.275 0.27
v 0.45 0.275 0.27
v 0 0.2625 0.27
v 0.15 0.2625 0.27
v 0.3 0.2625 0.27
v 0.45 0.2625 0.27
v 0 0.25 0.27
v 0.15 0.25 0.27
v 0.3 0.25 0.27
v 0.45 0.25 0.27
v 0.6 0.25 0.27
f 15 10 9 14
f 16 11 10 15
f 17 12 11 16
f 19 15 14 18
f 20 16 15 19
f 21 17 16 20
f 23 19 18 22
f 24 20 19 23
f 25 21 20 24
f 27 23 22 26
f 28 24 23 27
f 29 25 24 28
f 13 12 17
f 30 13 21
f 17 21 13
f 31 25 29
f 25 31 30
f 21 25 30
f 38 33 32 37
f 39 34 33 38
f 40 35 34 39
f 42 38 37 41
f 43 39 38 42
f 44 40 39 43
f 46 42 41 45
f 47 43 42 46
f 48 44 43 47
f 50 46 45 49
f 51 47 46 50
f 52 48 47 51
f 36 35 40
f 44 36 40
f 53 44 48
f 48 52 53
f 36 44 53
