# Houscaper tile from 22.3dm Cube Frame group 233
# signature 01110010 variant 2
g blank_1
v -4.8828125E-07 0.20394091796875727 0.405
v -4.8828125E-07 0.20394091796875727 -2.842170943040401E-16
v 0.11249951171875 0.09144091796875728 -2.842170943040401E-16
v 0.22499951171875002 -0.021059082031242723 -2.842170943040401E-16
v 0.22499951171875002 -0.021059082031242723 0.405
v 0.22499951171875002 0.8789409179687573 0.405
v 0.22499951171875002 0.8789409179687573 0.54
v 0.22499951171875002 0.20394091796875727 0.405
v 0.22499951171875002 0.20394091796875727 0.54
v 0.90000146484375 0.20394091796875727 0.405
v 0.90000146484375 0.20394091796875727 0.54
v 0.22499951171875002 0.20394091796875727 0.405
v 0.22499951171875002 0.20394091796875727 0.54
v -4.8828125E-07 0.20394091796875727 0.405
v 0.22499951171875002 -0.021059082031242723 0.405
v 0.22499951171875002 0.20394091796875727 0.405
v 0.22499951171875002 0.8789409179687573 0.405
v 0.90000146484375 0.20394091796875727 0.405
v -4.8828125E-07 0.8789409179687573 0.405
v 0.90000146484375 -0.021059082031242723 0.405
f 3 2 1
f 4 3 5
f 1 5 3
f 7 9 8 6
f 11 10 12 13
f 17 16 19
f 14 19 16
f 18 20 15 16
f 14 16 15
