# Houscaper tile from 22.3dm Cube Frame group 135
# signature 10111111 variant 1
g arc_frame_1
v 0.8 0.5 0
v 0.8 0.3 0
v 0.9 0.5 0
v 0.9 0.3 0
v 0.9 0.5 0
v 0.9 0.5 0.54
v 0.8 0.5 0
v 0.8 0.5 0.54
v 0.9 0.3 0
v 0.9 0.3 0.54
v 0.9 0.5 0
v 0.9 0.5 0.54
v 0.8 0.3 0
v 0.8 0.3 0.54
v 0.9 0.3 0
v 0.9 0.3 0.54
v 0.8 0.5 0
v 0.8 0.5 0.54
v 0.8 0.3 0
v 0.8 0.3 0.54
v 0.8 0.5 0.54
v 0.8 0.3 0.54
v 0.9 0.5 0.54
v 0.9 0.3 0.54
f 2 1 3 4
f 6 5 7 8
f 10 9 11 12
f 14 13 15 16
f 18 17 19 20
f 22 24 23 21
g arc_frame_2
v 0.4 0.1 0
v 0.6 0.1 0
v 0.4 0 0
v 0.6 0 0
v 0.4 0 0
v 0.4 0 0.54
v 0.4 0.1 0
v 0.4 0.1 0.54
v 0.6 0 0
v 0.6 0 0.54
v 0.4 0 0
v 0.4 0 0.54
v 0.6 0.1 0
v 0.6 0.1 0.54
v 0.6 0 0
v 0.6 0 0.54
v 0.4 0.1 0
v 0.4 0.1 0.54
v 0.6 0.1 0
v 0.6 0.1 0.54
v 0.4 0.1 0.54
v 0.6 0.1 0.54
v 0.4 0 0.54
v 0.6 0 0.54
f 26 28 27 25
f 30 32 31 29
f 34 36 35 33
f 38 40 39 37
f 42 44 43 41
f 46 45 47 48
g arc_frame_3
v 0.6 0 0
v 0.6 0 0.54
v 0.6 0.3 0
v 0.6 0.3 0.54
f 52 50 49 51
g arc_frame_4
v 0.9 0.3 0
v 0.9 0.3 0.54
v 0.6 0.3 0
v 0.6 0.3 0.54
f 56 54 53 55
g arc_frame_5
v 0.9 0.3 0
v 0.9 0.3 0.54
v 0.6 0.3 0
v 0.6 0.3 0.54
f 60 58 57 59
g arc_frame_6
v 0.6 0 0
v 0.6 0 0.54
v 0.6 0.3 0
v 0.6 0.3 0.54
f 64 62 61 63
g floor_7
v 0.9 0 0.54
v 0.9 0.3 0.54
v 0.6 0.3 0.54
v 0.6 0 0.54
v 0.6 0.3 0.54
v 0.6 0.3 0.36
v 0.6 0 0.54
v 0.6 0 0.36
v 0.9 0.3 0.54
v 0.9 0.3 0.36
v 0.6 0.3 0.54
v 0.6 0.3 0.36
v 0.9 0 0.54
v 0.9 0 0.36
v 0.9 0.3 0.54
v 0.9 0.3 0.36
v 0.6 0 0.54
v 0.6 0 0.36
v 0.9 0 0.54
v 0.9 0 0.36
v 0.9 0 0.36
v 0.9 0.3 0.36
v 0.6 0 0.36
v 0.6 0.3 0.36
f 65 66 67 68
f 70 72 71 69
f 74 76 75 73
f 78 80 79 77
f 82 84 83 81
f 85 87 88 86
g floor_8
v 0.6 0.3 0.54
v 0.4 0.5 0.54
v 0.8 0.3 0.54
v 0.8 0.5 0.54
v 0.8 0.3 0.54
v 0.8 0.3 0
v 0.6 0.3 0.54
v 0.6 0.3 0
v 0.8 0.5 0.54
v 0.8 0.5 0
v 0.8 0.3 0.54
v 0.8 0.3 0
v 0.4 0.5 0.54
v 0.4 0.5 0
v 0.8 0.5 0.54
v 0.8 0.5 0
v 0.6 0.3 0.54
v 0.6 0.3 0
v 0.4 0.5 0.54
v 0.4 0.5 0
v 0.6 0.3 0
v 0.4 0.5 0
v 0.8 0.3 0
v 0.8 0.5 0
f 90 89 91 92
f 94 93 95 96
f 98 97 99 100
f 102 101 103 104
f 106 105 107 108
f 110 112 111 109
g floor_9
v 0.6 0.3 0.54
v 0.4 0.5 0.54
v 0.6 0.1 0.54
v 0.4 0.1 0.54
v 0.6 0.1 0.54
v 0.6 0.1 0
v 0.6 0.3 0.54
v 0.6 0.3 0
v 0.4 0.1 0.54
v 0.4 0.1 0
v 0.6 0.1 0.54
v 0.6 0.1 0
v 0.4 0.5 0.54
v 0.4 0.5 0
v 0.4 0.1 0.54
v 0.4 0.1 0
v 0.6 0.3 0.54
v 0.6 0.3 0
v 0.4 0.5 0.54
v 0.4 0.5 0
v 0.6 0.3 0
v 0.4 0.5 0
v 0.6 0.1 0
v 0.4 0.1 0
f 114 116 115 113
f 118 120 119 117
f 122 124 123 121
f 126 128 127 125
f 130 132 131 129
f 134 133 135 136
