# Houscaper tile from 22.3dm Cube Frame group 130
# signature 00010000 variant 1
g arc_frame_1
v 0.1 0.5 -0.11323807525634766
v 0 0.5 -0.11323807525634766
v 0 0.9 0.12676192474365236
v 0.1 0.9 0.12676192474365236
v 0.1 0.3 -9.947598300641404E-16
v 0.1 0.9 0.36
v 0.1 0.5 -0.11323807525634766
v 0.1 0.9 0.12676192474365236
v 0.1 0.5 -9.947598300641404E-16
v 0 0.3 -9.947598300641404E-16
v 0 0.9 0.36
v 0.1 0.9 0.36
v 0.1 0.3 -9.947598300641404E-16
v 0 0.3 -9.947598300641404E-16
v 0 0.9 0.36
v 0 0.9 0.12676192474365236
v 0 0.5 -9.947598300641404E-16
v 0 0.5 -0.11323807525634766
f 4 1 2 3
f 9 6 5
f 8 9 7
f 6 9 8
f 11 10 13 12
f 17 16 18
f 15 17 14
f 16 17 15
g arc_frame_2
v 0.4 0.8 -0.11323807525634766
v 0.4 0.9 -0.11323807525634766
v 0 0.9 0.12676192474365236
v 0 0.8 0.12676192474365236
v 0.6 0.8 -9.947598300641404E-16
v 0 0.8 0.36
v 0.4 0.8 -0.11323807525634766
v 0 0.8 0.12676192474365236
v 0.4 0.8 -9.947598300641404E-16
v 0.6 0.9 -9.947598300641404E-16
v 0 0.9 0.36
v 0 0.8 0.36
v 0.6 0.8 -9.947598300641404E-16
v 0.6 0.9 -9.947598300641404E-16
v 0 0.9 0.36
v 0 0.9 0.12676192474365236
v 0.4 0.9 -9.947598300641404E-16
v 0.4 0.9 -0.11323807525634766
f 22 21 20 19
f 27 23 24
f 26 25 27
f 24 26 27
f 29 30 31 28
f 35 36 34
f 33 32 35
f 34 33 35
