# Houscaper tile from 22.3dm Cube Frame group 190
# signature 01110000 variant 3
g arc_frame_1
v 0.9000000000000073 0 0.365
v 0.6000000000000073 0 0.1825
v 0.30000000000000726 0 0
v 0.9000000000000073 0.9 0.365
v 0.6000000000000073 0.6 0.1825
v 0.30000000000000726 0.3 0
f 5 4 1 2
f 6 5 2 3
g arc_frame_2
v 7.275957614183426E-15 0.9 0.365
v 7.275957614183426E-15 0.6 0.1825
v 7.275957614183426E-15 0.3 0
v 0.9000000000000073 0.9 0.365
v 0.6000000000000073 0.6 0.1825
v 0.30000000000000726 0.3 0
f 11 8 7 10
f 12 9 8 11
