# Houscaper tile from 22.3dm Cube Frame group 220
# signature 00101111 variant 1
g blank_1
v 0.225 0.9000000000000037 0.13500000000001364
v 0.225 0.9000000000000037 5.684341886080802E-16
v 0.225 0.22500000000000364 0.13500000000001364
v 0.225 0.22500000000000364 5.684341886080802E-16
v 0.9 0.22500000000000364 0.13500000000001364
v 0.9 0.22500000000000364 0
v 0.225 0.22500000000000364 0.13500000000001364
v 0.225 0.22500000000000364 5.684341886080802E-16
v 0.225 0.22500000000000364 0.13500000000001364
v 0.225 0.9000000000000037 0.13500000000001364
v 0.9 0.22500000000000364 0.13500000000001364
v 0 0.9000000000000037 0.13500000000001364
v 0 3.637978807091713E-15 0.13500000000001364
v 0.9 3.637978807091713E-15 0.13500000000001364
f 2 4 3 1
f 6 5 7 8
f 10 9 12
f 13 12 9
f 11 14 13 9
