# Houscaper tile from 22.3dm Cube Frame group 140
# signature 00100011 variant 2
g arc_frame_1
v 0.5000000000000145 0.9000000000000182 0
v 0.30000000000001453 0.9000000000000182 0
v 0.5000000000000145 0.8000000000000183 0
v 0.30000000000001453 0.8000000000000183 0
v 0.5000000000000145 0.8000000000000183 0
v 0.5000000000000145 0.8000000000000183 0.54
v 0.5000000000000145 0.9000000000000182 0
v 0.5000000000000145 0.9000000000000182 0.54
v 0.30000000000001453 0.8000000000000183 0
v 0.30000000000001453 0.8000000000000183 0.54
v 0.5000000000000145 0.8000000000000183 0
v 0.5000000000000145 0.8000000000000183 0.54
v 0.30000000000001453 0.9000000000000182 0
v 0.30000000000001453 0.9000000000000182 0.54
v 0.30000000000001453 0.8000000000000183 0
v 0.30000000000001453 0.8000000000000183 0.54
v 0.5000000000000145 0.9000000000000182 0
v 0.5000000000000145 0.9000000000000182 0.54
v 0.30000000000001453 0.9000000000000182 0
v 0.30000000000001453 0.9000000000000182 0.54
v 0.5000000000000145 0.9000000000000182 0.54
v 0.30000000000001453 0.9000000000000182 0.54
v 0.5000000000000145 0.8000000000000183 0.54
v 0.30000000000001453 0.8000000000000183 0.54
f 2 1 3 4
f 6 5 7 8
f 10 9 11 12
f 14 13 15 16
f 18 17 19 20
f 22 24 23 21
g arc_frame_2
v 0.9000000000000146 0.5000000000000182 0
v 0.9000000000000146 0.3000000000000182 0
v 0.8000000000000146 0.5000000000000182 0
v 0.8000000000000146 0.3000000000000182 0
v 0.8000000000000146 0.5000000000000182 0
v 0.8000000000000146 0.5000000000000182 0.54
v 0.9000000000000146 0.5000000000000182 0
v 0.9000000000000146 0.5000000000000182 0.54
v 0.8000000000000146 0.3000000000000182 0
v 0.8000000000000146 0.3000000000000182 0.54
v 0.8000000000000146 0.5000000000000182 0
v 0.8000000000000146 0.5000000000000182 0.54
v 0.9000000000000146 0.3000000000000182 0
v 0.9000000000000146 0.3000000000000182 0.54
v 0.8000000000000146 0.3000000000000182 0
v 0.8000000000000146 0.3000000000000182 0.54
v 0.9000000000000146 0.5000000000000182 0
v 0.9000000000000146 0.5000000000000182 0.54
v 0.9000000000000146 0.3000000000000182 0
v 0.9000000000000146 0.3000000000000182 0.54
v 0.9000000000000146 0.5000000000000182 0.54
v 0.9000000000000146 0.3000000000000182 0.54
v 0.8000000000000146 0.5000000000000182 0.54
v 0.8000000000000146 0.3000000000000182 0.54
f 26 28 27 25
f 30 32 31 29
f 34 36 35 33
f 38 40 39 37
f 42 44 43 41
f 46 45 47 48
g floor_3
v 0.30000000000001453 0.3000000000000182 0.54
v 1.4551915228366852E-14 0.3000000000000182 0.54
v 0.30000000000001453 0.9000000000000182 0.54
v 1.4551915228366852E-14 0.9000000000000182 0.54
v 0.30000000000001453 0.9000000000000182 0.54
v 0.30000000000001453 0.9000000000000182 0.36
v 0.30000000000001453 0.3000000000000182 0.54
v 0.30000000000001453 0.3000000000000182 0.36
v 1.4551915228366852E-14 0.9000000000000182 0.54
v 1.4551915228366852E-14 0.9000000000000182 0.36
v 0.30000000000001453 0.9000000000000182 0.54
v 0.30000000000001453 0.9000000000000182 0.36
v 1.4551915228366852E-14 0.3000000000000182 0.54
v 1.4551915228366852E-14 0.3000000000000182 0.36
v 1.4551915228366852E-14 0.9000000000000182 0.54
v 1.4551915228366852E-14 0.9000000000000182 0.36
v 0.30000000000001453 0.3000000000000182 0.54
v 0.30000000000001453 0.3000000000000182 0.36
v 1.4551915228366852E-14 0.3000000000000182 0.54
v 1.4551915228366852E-14 0.3000000000000182 0.36
v 0.30000000000001453 0.3000000000000182 0.36
v 1.4551915228366852E-14 0.3000000000000182 0.36
v 0.30000000000001453 0.9000000000000182 0.36
v 1.4551915228366852E-14 0.9000000000000182 0.36
f 50 49 51 52
f 54 53 55 56
f 58 57 59 60
f 62 61 63 64
f 66 65 67 68
f 70 72 71 69
g floor_4
v 0.30000000000001453 0.3000000000000182 0.54
v 0.30000000000001453 0.3000000000000182 0.36
v 0.30000000000001453 0.8000000000000183 0.54
v 0.30000000000001453 0.8000000000000183 0.36
v 0.30000000000001453 0.8000000000000183 0.54
v 0.5000000000000145 0.8000000000000183 0.54
v 0.30000000000001453 0.3000000000000182 0.54
v 0.5000000000000145 0.3000000000000182 0.54
v 0.30000000000001453 0.8000000000000183 0.36
v 0.5000000000000145 0.8000000000000183 0.36
v 0.30000000000001453 0.8000000000000183 0.54
v 0.5000000000000145 0.8000000000000183 0.54
v 0.30000000000001453 0.3000000000000182 0.36
v 0.5000000000000145 0.3000000000000182 0.36
v 0.30000000000001453 0.8000000000000183 0.36
v 0.5000000000000145 0.8000000000000183 0.36
v 0.30000000000001453 0.3000000000000182 0.54
v 0.5000000000000145 0.3000000000000182 0.54
v 0.30000000000001453 0.3000000000000182 0.36
v 0.5000000000000145 0.3000000000000182 0.36
v 0.5000000000000145 0.3000000000000182 0.54
v 0.5000000000000145 0.3000000000000182 0.36
v 0.5000000000000145 0.8000000000000183 0.54
v 0.5000000000000145 0.8000000000000183 0.36
f 74 73 75 76
f 78 77 79 80
f 82 81 83 84
f 86 85 87 88
f 90 89 91 92
f 94 96 95 93
