# Houscaper tile from 22.3dm Cube Frame group 115
# signature 02220110 variant 0
g arc_frame_1
v 0.30000000000001453 0.9000000000000182 0
v 0.30000000000001453 0.9000000000000182 0.54
v 0.30000000000001453 1.8189894035458565E-14 0
v 0.30000000000001453 1.8189894035458565E-14 0.54
f 4 2 1 3
g floor_2
v 0.30000000000001453 0.9000000000000182 0
v 0.9000000000000146 0.9000000000000182 0
v 0.9000000000000146 0.3000000000000182 0
v 0.9000000000000146 1.8189894035458565E-14 0
v 0.30000000000001453 1.8189894035458565E-14 0
v 0.30000000000001453 0.3000000000000182 0
v 1.4551915228366852E-14 0.3000000000000182 0
v 1.4551915228366852E-14 0.9000000000000182 0
f 11 12 5 10
f 10 5 6 7
f 7 8 9 10
