# Houscaper tile from 22.3dm Cube Frame group 178
# signature 01110111 variant 0
g arc_frame_1
v 0.1 0.5000000000000182 0
v 0.1 0.3000000000000182 0
v 0 0.5000000000000182 0
v 0 0.3000000000000182 0
v 0 0.5000000000000182 0
v 0 0.5000000000000182 0.54
v 0.1 0.5000000000000182 0
v 0.1 0.5000000000000182 0.54
v 0 0.3000000000000182 0
v 0 0.3000000000000182 0.54
v 0 0.5000000000000182 0
v 0 0.5000000000000182 0.54
v 0.1 0.3000000000000182 0
v 0.1 0.3000000000000182 0.54
v 0 0.3000000000000182 0
v 0 0.3000000000000182 0.54
v 0.1 0.5000000000000182 0
v 0.1 0.5000000000000182 0.54
v 0.1 0.3000000000000182 0
v 0.1 0.3000000000000182 0.54
v 0.1 0.5000000000000182 0.54
v 0.1 0.3000000000000182 0.54
v 0 0.5000000000000182 0.54
v 0 0.3000000000000182 0.54
f 2 4 3 1
f 6 8 7 5
f 10 12 11 9
f 14 16 15 13
f 18 20 19 17
f 22 21 23 24
g arc_frame_2
v 0.5 0.10000000000001819 0
v 0.3 0.10000000000001819 0
v 0.5 1.8189894035458565E-14 0
v 0.3 1.8189894035458565E-14 0
v 0.5 1.8189894035458565E-14 0
v 0.5 1.8189894035458565E-14 0.54
v 0.5 0.10000000000001819 0
v 0.5 0.10000000000001819 0.54
v 0.3 1.8189894035458565E-14 0
v 0.3 1.8189894035458565E-14 0.54
v 0.5 1.8189894035458565E-14 0
v 0.5 1.8189894035458565E-14 0.54
v 0.3 0.10000000000001819 0
v 0.3 0.10000000000001819 0.54
v 0.3 1.8189894035458565E-14 0
v 0.3 1.8189894035458565E-14 0.54
v 0.5 0.10000000000001819 0
v 0.5 0.10000000000001819 0.54
v 0.3 0.10000000000001819 0
v 0.3 0.10000000000001819 0.54
v 0.5 0.10000000000001819 0.54
v 0.3 0.10000000000001819 0.54
v 0.5 1.8189894035458565E-14 0.54
v 0.3 1.8189894035458565E-14 0.54
f 26 25 27 28
f 30 29 31 32
f 34 33 35 36
f 38 37 39 40
f 42 41 43 44
f 46 48 47 45
