# Houscaper tile from 22.3dm Cube Frame group 221
# signature 00000111 variant 4
g blank_1
v 0.22499999999999637 -3.637978807091713E-15 0.13500000000001364
v 0.22499999999999637 -3.637978807091713E-15 0.5400000000000137
v 0.11249999999999637 0.11249999999999637 0.5400000000000137
v -3.637978807091713E-15 0.22499999999999637 0.5400000000000137
v -3.637978807091713E-15 0.22499999999999637 0.13500000000001364
f 3 2 1
f 4 3 5
f 1 5 3
g blank_2
v 0.8999999999999964 -3.637978807091713E-15 0.13500000000001364
v 0.8999999999999964 0.8999999999999964 0.13500000000001364
v -3.637978807091713E-15 0.8999999999999964 0.13500000000001364
v 0.22499999999999637 -3.637978807091713E-15 0.13500000000001364
v -3.637978807091713E-15 0.22499999999999637 0.13500000000001364
f 9 7 6
f 7 10 8
f 9 10 7
