# Houscaper tile from 22.3dm Cube Frame group 228
# signature 01100100 variant 0
g blank_1
v 0.22500000000000728 7.275957614183426E-15 0
v 0.22500000000000728 7.275957614183426E-15 0.405
v 0.22500000000000728 0.9000000000000073 0
v 0.22500000000000728 0.9000000000000073 0.405
v 0.22500000000000728 0.6750000000000073 0.405
v 0.9000000000000073 0.6750000000000073 0.405
v 0.9000000000000073 0.6750000000000073 0.54
v 0.22500000000000728 0.6750000000000073 0.405
v 0.22500000000000728 0.6750000000000073 0.54
v 0.22500000000000728 7.275957614183426E-15 0.405
v 0.22500000000000728 7.275957614183426E-15 0.54
v 0.22500000000000728 0.6750000000000073 0.405
v 0.22500000000000728 0.6750000000000073 0.54
v 0.22500000000000728 0.6750000000000073 0.405
v 0.9000000000000073 0.6750000000000073 0.405
v 0.9000000000000073 0.9000000000000073 0.405
v 0.22500000000000728 0.9000000000000073 0.405
f 5 2 1 3
f 4 5 3
f 7 9 8 6
f 11 10 12 13
f 15 14 17 16
