# Houscaper tile from 22.3dm Cube Frame group 100
# signature 00000002 variant 0
g floor_1
v 0 0.3 0.54
v 0.6 0.3 0.54
v 0 0.9 0.54
v 0.6 0.9 0.54
v 0 0.9 0.54
v 0 0.9 0.34
v 0 0.3 0.54
v 0 0.3 0.34
v 0.6 0.9 0.54
v 0.6 0.9 0.34
v 0 0.9 0.54
v 0 0.9 0.34
v 0.6 0.3 0.54
v 0.6 0.3 0.34
v 0.6 0.9 0.54
v 0.6 0.9 0.34
v 0 0.3 0.54
v 0 0.3 0.34
v 0.6 0.3 0.54
v 0.6 0.3 0.34
v 0 0.3 0.34
v 0.6 0.3 0.34
v 0 0.9 0.34
v 0.6 0.9 0.34
f 2 4 3 1
f 6 8 7 5
f 10 12 11 9
f 14 16 15 13
f 18 20 19 17
f 22 21 23 24
