# Houscaper tile from 22.3dm Cube Frame group 234
# signature 11110010 variant 2
g blank_1
v 0.22500000000000728 0.9000000000000037 0.405
v 0.22500000000000728 0.9000000000000037 0.54
v 0.22500000000000728 0.22500000000000364 0.405
v 0.22500000000000728 0.22500000000000364 0.54
v 0.9000000000000073 0.22500000000000364 0.405
v 0.9000000000000073 0.22500000000000364 0.54
v 0.22500000000000728 0.22500000000000364 0.405
v 0.22500000000000728 0.22500000000000364 0.54
v 0.22500000000000728 0.22500000000000364 0.405
v 0.22500000000000728 0.9000000000000037 0.405
v 0.9000000000000073 0.22500000000000364 0.405
v 7.275957614183426E-15 0.9000000000000037 0.405
v 7.275957614183426E-15 3.637978807091713E-15 0.405
v 0.9000000000000073 3.637978807091713E-15 0.405
f 2 1 3 4
f 6 8 7 5
f 10 12 9
f 13 9 12
f 11 9 13 14
