# Houscaper tile from 22.3dm Cube Frame group 229
# signature 01100000 variant 1
g blank_1
v 0.22500000000000364 0.9000000000000037 0.405
v 0.22500000000000364 0.9000000000000037 4.263256414560601E-16
v 0.22500000000000364 3.637978807091713E-15 0.405
v 0.22500000000000364 3.637978807091713E-15 4.263256414560601E-16
f 4 2 1 3
g blank_2
v 0.22500000000000364 0.9000000000000037 0.405
v 0.9000000000000037 0.9000000000000037 0.405
v 0.22500000000000364 3.637978807091713E-15 0.405
v 0.9000000000000037 3.637978807091713E-15 0.405
f 8 6 5 7
