# Houscaper tile from 22.3dm Cube Frame group 215
# signature 01100111 variant 3
g blank_1
v 0 0.225 0.13500000000001364
v 0.225 0 0.13500000000001364
v 0.225 0.675 0.13500000000001364
v 0.9 0.675 0.13500000000001364
v 0.9 0.9 0.13500000000001364
v 0.225 0.9 0.13500000000001364
v 0 0.675 0.13500000000001364
f 4 6 5
f 3 6 4
f 7 3 2 1
f 6 3 7
g blank_2
v 0.225 0 0.13500000000001364
v 0.225 0 0
v 0.225 0.675 0.13500000000001364
v 0.225 0.675 0
f 11 9 8 10
g blank_3
v 0.9 0.675 0.13500000000001364
v 0.9 0.675 5.684341886080802E-16
v 0.225 0.675 0.13500000000001364
v 0.225 0.675 5.684341886080802E-16
f 15 14 12 13
g blank_4
v 0.225 0 0.13500000000001364
v 0.225 0 0.5400000000000137
v 0.1125 0.1125 0.5400000000000137
v 0 0.225 0.5400000000000137
v 0 0.225 0.13500000000001364
f 18 17 16
f 19 18 20
f 16 20 18
