# Houscaper tile from 22.3dm Cube Frame group 224
# signature 00100010 variant 1
g blank_1
v 0.22500000000000364 0.9 0.5400000000000266
v 0.22500000000000364 0.9 -2.842170943040401E-16
v 0.22500000000000364 0.225 0.5400000000000266
v 0.22500000000000364 0.225 -4.263256414560601E-16
f 4 2 1 3
g blank_2
v 0.22500000000000364 0.225 0.5400000000000266
v 0.22500000000000364 0.225 -4.263256414560601E-16
v 0.9000000000000037 0.225 0.5400000000000266
v 0.9000000000000037 0.225 -8.526512829121202E-16
f 8 6 5 7
