# Houscaper tile from 22.3dm Cube Frame group 159
# signature 00010002 variant 2
g arc_frame_1
v 0.4 0.9 0
v 0.6 0.9 0
v 0.4 0.8 0
v 0.6 0.8 0
v 0.4 0.8 0
v 0.4 0.8 0.54
v 0.4 0.9 0
v 0.4 0.9 0.54
v 0.6 0.8 0
v 0.6 0.8 0.54
v 0.4 0.8 0
v 0.4 0.8 0.54
v 0.6 0.9 0
v 0.6 0.9 0.54
v 0.6 0.8 0
v 0.6 0.8 0.54
v 0.4 0.9 0
v 0.4 0.9 0.54
v 0.6 0.9 0
v 0.6 0.9 0.54
v 0.4 0.9 0.54
v 0.6 0.9 0.54
v 0.4 0.8 0.54
v 0.6 0.8 0.54
f 2 4 3 1
f 6 8 7 5
f 10 12 11 9
f 14 16 15 13
f 18 20 19 17
f 22 21 23 24
g arc_frame_2
v 0 0.5 0
v 0 0.3 0
v 0.1 0.5 0
v 0.1 0.3 0
v 0.1 0.5 0
v 0.1 0.5 0.54
v 0 0.5 0
v 0 0.5 0.54
v 0.1 0.3 0
v 0.1 0.3 0.54
v 0.1 0.5 0
v 0.1 0.5 0.54
v 0 0.3 0
v 0 0.3 0.54
v 0.1 0.3 0
v 0.1 0.3 0.54
v 0 0.5 0
v 0 0.5 0.54
v 0 0.3 0
v 0 0.3 0.54
v 0 0.5 0.54
v 0 0.3 0.54
v 0.1 0.5 0.54
v 0.1 0.3 0.54
f 26 25 27 28
f 30 29 31 32
f 34 33 35 36
f 38 37 39 40
f 42 41 43 44
f 46 48 47 45
g floor_3
v 0 0.3 0.54
v 0.6 0.3 0.54
v 0 0.9 0.54
v 0.6 0.9 0.54
v 0 0.9 0.54
v 0 0.9 0.36
v 0 0.3 0.54
v 0 0.3 0.36
v 0.6 0.9 0.54
v 0.6 0.9 0.36
v 0 0.9 0.54
v 0 0.9 0.36
v 0.6 0.3 0.54
v 0.6 0.3 0.36
v 0.6 0.9 0.54
v 0.6 0.9 0.36
v 0 0.3 0.54
v 0 0.3 0.36
v 0.6 0.3 0.54
v 0.6 0.3 0.36
v 0 0.3 0.36
v 0.6 0.3 0.36
v 0 0.9 0.36
v 0.6 0.9 0.36
f 50 52 51 49
f 54 56 55 53
f 58 60 59 57
f 62 64 63 61
f 66 68 67 65
f 70 69 71 72
