# Houscaper tile from 22.3dm Cube Frame group 142
# signature 00100111 variant 1
g arc_frame_1
v 0.3 0.7000000000000001 0
v 0.3 0.9 0
v 0.4 0.7000000000000001 0
v 0.4 0.9 0
v 0.4 0.7000000000000001 0
v 0.4 0.7000000000000001 0.54
v 0.3 0.7000000000000001 0
v 0.3 0.7000000000000001 0.54
v 0.4 0.9 0
v 0.4 0.9 0.54
v 0.4 0.7000000000000001 0
v 0.4 0.7000000000000001 0.54
v 0.3 0.9 0
v 0.3 0.9 0.54
v 0.4 0.9 0
v 0.4 0.9 0.54
v 0.3 0.7000000000000001 0
v 0.3 0.7000000000000001 0.54
v 0.3 0.9 0
v 0.3 0.9 0.54
v 0.3 0.7000000000000001 0.54
v 0.3 0.9 0.54
v 0.4 0.7000000000000001 0.54
v 0.4 0.9 0.54
f 2 4 3 1
f 6 8 7 5
f 10 12 11 9
f 14 16 15 13
f 18 20 19 17
f 22 21 23 24
g arc_frame_2
v 0.7000000000000001 0.3 0
v 0.9 0.3 0
v 0.7000000000000001 0.4 0
v 0.9 0.4 0
v 0.7000000000000001 0.4 0
v 0.7000000000000001 0.4 0.54
v 0.7000000000000001 0.3 0
v 0.7000000000000001 0.3 0.54
v 0.9 0.4 0
v 0.9 0.4 0.54
v 0.7000000000000001 0.4 0
v 0.7000000000000001 0.4 0.54
v 0.9 0.3 0
v 0.9 0.3 0.54
v 0.9 0.4 0
v 0.9 0.4 0.54
v 0.7000000000000001 0.3 0
v 0.7000000000000001 0.3 0.54
v 0.9 0.3 0
v 0.9 0.3 0.54
v 0.7000000000000001 0.3 0.54
v 0.9 0.3 0.54
v 0.7000000000000001 0.4 0.54
v 0.9 0.4 0.54
f 26 25 27 28
f 30 29 31 32
f 34 33 35 36
f 38 37 39 40
f 42 41 43 44
f 46 48 47 45
g floor_3
v 0.3 0.3 0.54
v 0.3 0 0.54
v 0.9 0.3 0.54
v 0.9 0 0.54
v 0.9 0.3 0.54
v 0.9 0.3 0.36
v 0.3 0.3 0.54
v 0.3 0.3 0.36
v 0.9 0 0.54
v 0.9 0 0.36
v 0.9 0.3 0.54
v 0.9 0.3 0.36
v 0.3 0 0.54
v 0.3 0 0.36
v 0.9 0 0.54
v 0.9 0 0.36
v 0.3 0.3 0.54
v 0.3 0.3 0.36
v 0.3 0 0.54
v 0.3 0 0.36
v 0.3 0.3 0.36
v 0.3 0 0.36
v 0.9 0.3 0.36
v 0.9 0 0.36
f 50 52 51 49
f 54 56 55 53
f 58 60 59 57
f 62 64 63 61
f 66 68 67 65
f 70 69 71 72
g floor_4
v 0 0.3 0.54
v 0.3 0.3 0.54
v 0 0.9 0.54
v 0.3 0.9 0.54
v 0 0.9 0.54
v 0 0.9 0.36
v 0 0.3 0.54
v 0 0.3 0.36
v 0.3 0.9 0.54
v 0.3 0.9 0.36
v 0 0.9 0.54
v 0 0.9 0.36
v 0.3 0.3 0.54
v 0.3 0.3 0.36
v 0.3 0.9 0.54
v 0.3 0.9 0.36
v 0 0.3 0.54
v 0 0.3 0.36
v 0.3 0.3 0.54
v 0.3 0.3 0.36
v 0 0.3 0.36
v 0.3 0.3 0.36
v 0 0.9 0.36
v 0.3 0.9 0.36
f 74 76 75 73
f 78 80 79 77
f 82 84 83 81
f 86 88 87 85
f 90 92 91 89
f 94 93 95 96
g floor_5
v 0.3 0 0.54
v 0.3 0.3 0.54
v 0 0.3 0.54
v 0 0 0.54
v 0 0.3 0.54
v 0 0.3 0.36
v 0 0 0.54
v 0 0 0.36
v 0.3 0.3 0.54
v 0.3 0.3 0.36
v 0 0.3 0.54
v 0 0.3 0.36
v 0.3 0 0.54
v 0.3 0 0.36
v 0.3 0.3 0.54
v 0.3 0.3 0.36
v 0 0 0.54
v 0 0 0.36
v 0.3 0 0.54
v 0.3 0 0.36
v 0.3 0 0.36
v 0.3 0.3 0.36
v 0 0 0.36
v 0 0.3 0.36
f 97 98 99 100
f 102 104 103 101
f 106 108 107 105
f 110 112 111 109
f 114 116 115 113
f 117 119 120 118
g floor_6
v 0.7000000000000001 0.3 0.54
v 0.7000000000000001 0.3 0.36
v 0.3 0.3 0.54
v 0.3 0.3 0.36
v 0.3 0.3 0.54
v 0.3 0.4 0.54
v 0.7000000000000001 0.3 0.54
v 0.7000000000000001 0.4 0.54
v 0.3 0.3 0.36
v 0.3 0.4 0.36
v 0.3 0.3 0.54
v 0.3 0.4 0.54
v 0.7000000000000001 0.3 0.36
v 0.7000000000000001 0.4 0.36
v 0.3 0.3 0.36
v 0.3 0.4 0.36
v 0.7000000000000001 0.3 0.54
v 0.7000000000000001 0.4 0.54
v 0.7000000000000001 0.3 0.36
v 0.7000000000000001 0.4 0.36
v 0.7000000000000001 0.4 0.54
v 0.7000000000000001 0.4 0.36
v 0.3 0.4 0.54
v 0.3 0.4 0.36
f 122 121 123 124
f 126 125 127 128
f 130 129 131 132
f 134 133 135 136
f 138 137 139 140
f 142 144 143 141
g floor_7
v 0.3 0.4 0.54
v 0.3 0.4 0.36
v 0.3 0.7000000000000001 0.54
v 0.3 0.7000000000000001 0.36
v 0.3 0.7000000000000001 0.54
v 0.4 0.7000000000000001 0.54
v 0.3 0.4 0.54
v 0.4 0.4 0.54
v 0.3 0.7000000000000001 0.36
v 0.4 0.7000000000000001 0.36
v 0.3 0.7000000000000001 0.54
v 0.4 0.7000000000000001 0.54
v 0.3 0.4 0.36
v 0.4 0.4 0.36
v 0.3 0.7000000000000001 0.36
v 0.4 0.7000000000000001 0.36
v 0.3 0.4 0.54
v 0.4 0.4 0.54
v 0.3 0.4 0.36
v 0.4 0.4 0.36
v 0.4 0.4 0.54
v 0.4 0.4 0.36
v 0.4 0.7000000000000001 0.54
v 0.4 0.7000000000000001 0.36
f 146 145 147 148
f 150 149 151 152
f 154 153 155 156
f 158 157 159 160
f 162 161 163 164
f 166 168 167 165
