# Houscaper tile from 22.3dm Cube Frame group 147
# signature 01110000 variant 2
g arc_frame_1
v 1.4551915228366852E-14 0.49999999999998185 -0.11323807525634766
v 0.10000000000001455 0.49999999999998185 -0.11323807525634766
v 0.10000000000001455 0.8999999999999818 0.12676192474365236
v 1.4551915228366852E-14 0.8999999999999818 0.12676192474365236
v 1.4551915228366852E-14 0.29999999999998184 -9.947598300641404E-16
v 1.4551915228366852E-14 0.8999999999999818 0.36
v 1.4551915228366852E-14 0.49999999999998185 -0.11323807525634766
v 1.4551915228366852E-14 0.8999999999999818 0.12676192474365236
v 1.4551915228366852E-14 0.49999999999998185 -9.947598300641404E-16
v 0.10000000000001455 0.29999999999998184 -9.947598300641404E-16
v 0.10000000000001455 0.8999999999999818 0.36
v 1.4551915228366852E-14 0.8999999999999818 0.36
v 1.4551915228366852E-14 0.29999999999998184 -9.947598300641404E-16
v 0.10000000000001455 0.29999999999998184 -9.947598300641404E-16
v 0.10000000000001455 0.8999999999999818 0.36
v 0.10000000000001455 0.8999999999999818 0.12676192474365236
v 0.10000000000001455 0.49999999999998185 -9.947598300641404E-16
v 0.10000000000001455 0.49999999999998185 -0.11323807525634766
f 4 3 2 1
f 9 5 6
f 8 7 9
f 6 8 9
f 11 12 13 10
f 17 18 16
f 15 14 17
f 16 15 17
g arc_frame_2
v 0.5000000000000145 -1.8189894035458565E-14 -0.11323807525634766
v 0.5000000000000145 0.09999999999998181 -0.11323807525634766
v 0.9000000000000146 0.09999999999998181 0.12676192474365236
v 0.9000000000000146 -1.8189894035458565E-14 0.12676192474365236
v 0.30000000000001453 -1.8189894035458565E-14 -9.947598300641404E-16
v 0.9000000000000146 -1.8189894035458565E-14 0.36
v 0.5000000000000145 -1.8189894035458565E-14 -0.11323807525634766
v 0.9000000000000146 -1.8189894035458565E-14 0.12676192474365236
v 0.5000000000000145 -1.8189894035458565E-14 -9.947598300641404E-16
v 0.30000000000001453 0.09999999999998181 -9.947598300641404E-16
v 0.9000000000000146 0.09999999999998181 0.36
v 0.9000000000000146 -1.8189894035458565E-14 0.36
v 0.30000000000001453 -1.8189894035458565E-14 -9.947598300641404E-16
v 0.30000000000001453 0.09999999999998181 -9.947598300641404E-16
v 0.9000000000000146 0.09999999999998181 0.36
v 0.9000000000000146 0.09999999999998181 0.12676192474365236
v 0.5000000000000145 0.09999999999998181 -9.947598300641404E-16
v 0.5000000000000145 0.09999999999998181 -0.11323807525634766
f 22 19 20 21
f 27 24 23
f 26 27 25
f 24 27 26
f 29 28 31 30
f 35 34 36
f 33 35 32
f 34 35 33
g arc_frame_3
v 0.9000000000000146 0.8999999999999818 0.36
v 0.9000000000000146 0.09999999999998181 0.36
v 0.8000000000000146 0.09999999999998181 0.36
v 0.8000000000000146 0.7999999999999818 0.36
v 0.10000000000001455 0.7999999999999818 0.36
v 0.10000000000001455 0.8999999999999818 0.36
v 0.9000000000000146 0.09999999999998181 0.36
v 0.9000000000000146 0.09999999999998181 0.12676192474365236
v 0.9000000000000146 0.8999999999999818 0.36
v 0.9000000000000146 0.8999999999999818 0.12676192474365236
v 0.8000000000000146 0.09999999999998181 0.36
v 0.8000000000000146 0.09999999999998181 0.12676192474365236
v 0.9000000000000146 0.09999999999998181 0.36
v 0.9000000000000146 0.09999999999998181 0.12676192474365236
v 0.8000000000000146 0.7999999999999818 0.36
v 0.8000000000000146 0.7999999999999818 0.12676192474365236
v 0.8000000000000146 0.09999999999998181 0.36
v 0.8000000000000146 0.09999999999998181 0.12676192474365236
v 0.10000000000001455 0.7999999999999818 0.36
v 0.10000000000001455 0.7999999999999818 0.12676192474365236
v 0.8000000000000146 0.7999999999999818 0.36
v 0.8000000000000146 0.7999999999999818 0.12676192474365236
v 0.10000000000001455 0.8999999999999818 0.36
v 0.10000000000001455 0.8999999999999818 0.12676192474365236
v 0.10000000000001455 0.7999999999999818 0.36
v 0.10000000000001455 0.7999999999999818 0.12676192474365236
v 0.9000000000000146 0.8999999999999818 0.36
v 0.9000000000000146 0.8999999999999818 0.12676192474365236
v 0.10000000000001455 0.8999999999999818 0.36
v 0.10000000000001455 0.8999999999999818 0.12676192474365236
v 0.9000000000000146 0.8999999999999818 0.12676192474365236
v 0.9000000000000146 0.09999999999998181 0.12676192474365236
v 0.8000000000000146 0.09999999999998181 0.12676192474365236
v 0.8000000000000146 0.7999999999999818 0.12676192474365236
v 0.10000000000001455 0.7999999999999818 0.12676192474365236
v 0.10000000000001455 0.8999999999999818 0.12676192474365236
f 40 37 42 41
f 39 38 37 40
f 44 46 45 43
f 48 50 49 47
f 52 54 53 51
f 56 58 57 55
f 60 62 61 59
f 64 66 65 63
f 70 71 72 67
f 69 70 67 68
g arc_frame_4
v 0.10000000000001455 0.8999999999999818 0.36
v 0.10000000000001455 0.7999999999999818 0.36
v 0.10000000000001455 0.7999999999999818 0.3
v 0.10000000000001455 0.7999999999999818 0.3
v 1.4551915228366852E-14 0.7999999999999818 0.3
v 0.10000000000001455 0.8999999999999818 0.36
v 1.4551915228366852E-14 0.8999999999999818 0.36
v 0.10000000000001455 0.7999999999999818 0.36
v 1.4551915228366852E-14 0.7999999999999818 0.36
v 0.10000000000001455 0.7999999999999818 0.3
v 1.4551915228366852E-14 0.7999999999999818 0.3
v 0.10000000000001455 0.8999999999999818 0.36
v 1.4551915228366852E-14 0.8999999999999818 0.36
v 0.10000000000001455 0.7999999999999818 0.36
v 1.4551915228366852E-14 0.7999999999999818 0.36
v 1.4551915228366852E-14 0.8999999999999818 0.36
v 1.4551915228366852E-14 0.7999999999999818 0.36
v 1.4551915228366852E-14 0.7999999999999818 0.3
f 74 75 73
f 77 79 78 76
f 81 83 82 80
f 85 87 86 84
f 89 88 90
g arc_frame_5
v 0.9000000000000146 0.09999999999998181 0.36
v 0.8000000000000146 0.09999999999998181 0.36
v 0.8000000000000146 0.09999999999998181 0.3
v 0.8000000000000146 0.09999999999998181 0.3
v 0.8000000000000146 -1.8189894035458565E-14 0.3
v 0.9000000000000146 0.09999999999998181 0.36
v 0.9000000000000146 -1.8189894035458565E-14 0.36
v 0.8000000000000146 0.09999999999998181 0.36
v 0.8000000000000146 -1.8189894035458565E-14 0.36
v 0.8000000000000146 0.09999999999998181 0.3
v 0.8000000000000146 -1.8189894035458565E-14 0.3
v 0.9000000000000146 0.09999999999998181 0.36
v 0.9000000000000146 -1.8189894035458565E-14 0.36
v 0.8000000000000146 0.09999999999998181 0.36
v 0.8000000000000146 -1.8189894035458565E-14 0.36
v 0.9000000000000146 -1.8189894035458565E-14 0.36
v 0.8000000000000146 -1.8189894035458565E-14 0.36
v 0.8000000000000146 -1.8189894035458565E-14 0.3
f 92 91 93
f 95 94 96 97
f 99 98 100 101
f 103 102 104 105
f 107 108 106
