# Houscaper tile from 22.3dm Cube Frame group 197
# signature 01110100 variant 2
g arc_frame_1
v 1.4551915228366852E-14 0.9 0.365
v 0.15000000000001457 0.6 0.4525
v 0.30000000000001453 0.3 0.54
v 0.15000000000001457 0.75 0.4525
v 0.30000000000001453 0.6 0.54
f 4 2 1
f 5 3 4
f 2 4 3
g arc_frame_2
v 1.4551915228366852E-14 0.3 0
v 0.30000000000001453 0.3 0.54
v 1.4551915228366852E-14 0.9 0.365
f 7 6 8
g arc_frame_3
v 1.4551915228366852E-14 0.3 0
v 0.30000000000001453 0.3 0
v 0.30000000000001453 0.3 0.54
f 11 9 10
g arc_frame_4
v 0.30000000000001453 0 0
v 0.30000000000001453 0 0.54
v 0.30000000000001453 0.3 0
v 0.30000000000001453 0.3 0.54
f 15 13 12 14
g arc_frame_5
v 0.9000000000000146 0.6 0.54
v 1.4551915228366852E-14 0.9 0.365
v 0.9000000000000146 0.9 0.365
v 0.30000000000001453 0.6 0.54
f 16 19 17 18
