# Houscaper tile from 22.3dm Cube Frame group 122
# signature 01112222 variant 0
g arc_frame_1
v 0.3 9.094947017729283E-15 0
v 0.3 9.094947017729283E-15 0.54
v 0.3 0.3000000000000091 0
v 0.3 0.3000000000000091 0.54
f 4 2 1 3
g arc_frame_2
v 0 0.3000000000000091 0
v 0 0.3000000000000091 0.54
v 0.3 0.3000000000000091 0
v 0.3 0.3000000000000091 0.54
f 8 6 5 7
g floor_3
v 0 0.9000000000000091 0.54
v 0 9.094947017729283E-15 0.54
v 0.9 0.9000000000000091 0.54
v 0.9 9.094947017729283E-15 0.54
f 12 10 9 11
