# Houscaper tile from 22.3dm Cube Frame group 134
# signature 11111011 variant 1
g arc_frame_1
v 0.6 0.1 0.54
v 0.9 0 0.36
v 0.6 0 0.54
v 0.8 0.1 0.42
v 0.8 0.1 0.18676191711425782
v 0.6 0.1 0.54
v 0.4 0.1 0.54
v 0.4 0.1 0.4267619323730469
v 0.8 0.1 0.42
v 0.9 0 0.12676192474365236
v 0.4 0 0.4267619323730469
v 0.4 0.1 0.4267619323730469
v 0.8 0.1 0.18676191711425782
v 0.8 0 0.18676191711425782
v 0.8 0.1 0.18676191711425782
v 0.8 0.3 0.54
v 0.8 0.5 0.54
v 0.8 0.5 0.4267619323730469
v 0.8 0.1 0.42
v 0.9 0 0.12676192474365236
v 0.9 0 0.36
v 0.9 0.5 0.4267619323730469
v 0.9 0.5 0.54
v 0.9 0.3 0.54
v 0.9 0.1 0.18676191711425782
v 0.8 0.3 0.54
v 0.9 0 0.36
v 0.9 0.3 0.54
v 0.8 0.1 0.42
v 0.9 0 0.12676192474365236
v 0.4 0 0.4267619323730469
v 0.4 0 0.54
v 0.6 0 0.54
v 0.9 0 0.36
v 0.8 0 0.18676191711425782
v 0.9 0 0.12676192474365236
v 0.9 0.5 0.4267619323730469
v 0.8 0.1 0.18676191711425782
v 0.8 0.5 0.4267619323730469
v 0.9 0.1 0.18676191711425782
f 3 4 1
f 4 3 2
f 7 5 8
f 6 9 7
f 5 7 9
f 13 10 14
f 11 12 13 14
f 17 18 15
f 16 17 19
f 15 19 17
f 24 21 23
f 25 23 21
f 21 20 25
f 23 25 22
f 28 26 29
f 29 27 28
f 33 32 34
f 35 34 32
f 34 35 30
f 32 31 35
f 38 40 36
f 37 40 38 39
