# Houscaper tile from 22.3dm Cube Frame group 202
# signature 01111111 variant 0
g arc_frame_1
v 0.30000000000001453 -3.092281986027956E-14 0
v 0.30000000000001453 -3.092281986027956E-14 0.54
v 0.30000000000001453 0.29999999999996907 0
v 0.30000000000001453 0.29999999999996907 0.54
f 4 2 1 3
g arc_frame_2
v 1.4551915228366852E-14 0.29999999999996907 0
v 1.4551915228366852E-14 0.29999999999996907 0.54
v 0.30000000000001453 0.29999999999996907 0
v 0.30000000000001453 0.29999999999996907 0.54
f 8 6 5 7
g floor_3
v 1.4551915228366852E-14 -3.092281986027956E-14 0.54
v 0.30000000000001453 -3.092281986027956E-14 0.54
v 1.4551915228366852E-14 0.29999999999996907 0.54
v 0.30000000000001453 0.29999999999996907 0.54
f 9 11 12 10
