# Houscaper tile from 22.3dm Cube Frame group 196
# signature 01110110 variant 3
g arc_frame_1
v 1.4551915228366852E-14 0.3000000000000109 0
v 0.30000000000001453 0.3000000000000109 0
v 0.30000000000001453 0.3000000000000109 0.54
f 2 1 3
g arc_frame_2
v 1.4551915228366852E-14 0.3000000000000109 0
v 0.30000000000001453 0.3000000000000109 0.54
v 1.4551915228366852E-14 0.600000000000011 0.1825
v 1.4551915228366852E-14 0.9000000000000109 0.365
f 6 5 4
f 5 6 7
g arc_frame_3
v 0.30000000000001453 0.3000000000000109 0.54
v 0.30000000000001453 0.3000000000000109 0
v 0.30000000000001453 1.0913936421275139E-14 0.54
v 0.30000000000001453 1.0913936421275139E-14 0
f 11 9 8 10
g arc_frame_4
v 1.4551915228366852E-14 0.9000000000000109 0.365
v 0.30000000000001453 0.9000000000000109 0.54
v 0.30000000000001453 0.3000000000000109 0.54
f 14 12 13
