# Houscaper tile from 22.3dm Cube Frame group 236
# signature 01110000 variant 4
g blank_1
v -7.275957614183426E-15 0.22499999999999637 0.405
v -7.275957614183426E-15 0.22499999999999637 -2.842170943040401E-16
v 0.22499999999999273 -3.637978807091713E-15 -2.842170943040401E-16
v 0.22499999999999273 -3.637978807091713E-15 0.405
f 2 1 4 3
g blank_2
v -7.275957614183426E-15 0.8999999999999964 0.405
v 0.8999999999999927 0.8999999999999964 0.405
v 0.8999999999999927 -3.637978807091713E-15 0.405
v -7.275957614183426E-15 0.22499999999999637 0.405
v 0.22499999999999273 -3.637978807091713E-15 0.405
f 8 6 5
f 6 9 7
f 8 9 6
