# Houscaper tile from 22.3dm Cube Frame group 141
# signature 01100111 variant 0
g arc_frame_1
v 0.5000000000000291 0.10000000000003638 0
v 0.30000000000002913 0.10000000000003638 0
v 0.5000000000000291 3.637978807091713E-14 0
v 0.30000000000002913 3.637978807091713E-14 0
v 0.5000000000000291 3.637978807091713E-14 0
v 0.5000000000000291 3.637978807091713E-14 0.54
v 0.5000000000000291 0.10000000000003638 0
v 0.5000000000000291 0.10000000000003638 0.54
v 0.30000000000002913 3.637978807091713E-14 0
v 0.30000000000002913 3.637978807091713E-14 0.54
v 0.5000000000000291 3.637978807091713E-14 0
v 0.5000000000000291 3.637978807091713E-14 0.54
v 0.30000000000002913 0.10000000000003638 0
v 0.30000000000002913 0.10000000000003638 0.54
v 0.30000000000002913 3.637978807091713E-14 0
v 0.30000000000002913 3.637978807091713E-14 0.54
v 0.5000000000000291 0.10000000000003638 0
v 0.5000000000000291 0.10000000000003638 0.54
v 0.30000000000002913 0.10000000000003638 0
v 0.30000000000002913 0.10000000000003638 0.54
v 0.5000000000000291 0.10000000000003638 0.54
v 0.30000000000002913 0.10000000000003638 0.54
v 0.5000000000000291 3.637978807091713E-14 0.54
v 0.30000000000002913 3.637978807091713E-14 0.54
f 2 1 3 4
f 6 5 7 8
f 10 9 11 12
f 14 13 15 16
f 18 17 19 20
f 22 24 23 21
g arc_frame_2
v 0.5000000000000291 0.9000000000000364 0
v 0.30000000000002913 0.9000000000000364 0
v 0.5000000000000291 0.8000000000000363 0
v 0.30000000000002913 0.8000000000000363 0
v 0.5000000000000291 0.8000000000000363 0
v 0.5000000000000291 0.8000000000000363 0.54
v 0.5000000000000291 0.9000000000000364 0
v 0.5000000000000291 0.9000000000000364 0.54
v 0.30000000000002913 0.8000000000000363 0
v 0.30000000000002913 0.8000000000000363 0.54
v 0.5000000000000291 0.8000000000000363 0
v 0.5000000000000291 0.8000000000000363 0.54
v 0.30000000000002913 0.9000000000000364 0
v 0.30000000000002913 0.9000000000000364 0.54
v 0.30000000000002913 0.8000000000000363 0
v 0.30000000000002913 0.8000000000000363 0.54
v 0.5000000000000291 0.9000000000000364 0
v 0.5000000000000291 0.9000000000000364 0.54
v 0.30000000000002913 0.9000000000000364 0
v 0.30000000000002913 0.9000000000000364 0.54
v 0.5000000000000291 0.9000000000000364 0.54
v 0.30000000000002913 0.9000000000000364 0.54
v 0.5000000000000291 0.8000000000000363 0.54
v 0.30000000000002913 0.8000000000000363 0.54
f 26 25 27 28
f 30 29 31 32
f 34 33 35 36
f 38 37 39 40
f 42 41 43 44
f 46 48 47 45
g floor_3
v 2.9103830456733704E-14 0.9000000000000364 0.54
v 2.9103830456733704E-14 0.3000000000000364 0.54
v 0.30000000000002913 0.9000000000000364 0.54
v 0.30000000000002913 0.3000000000000364 0.54
v 0.30000000000002913 0.9000000000000364 0.54
v 0.30000000000002913 0.9000000000000364 0.36
v 2.9103830456733704E-14 0.9000000000000364 0.54
v 2.9103830456733704E-14 0.9000000000000364 0.36
v 0.30000000000002913 0.3000000000000364 0.54
v 0.30000000000002913 0.3000000000000364 0.36
v 0.30000000000002913 0.9000000000000364 0.54
v 0.30000000000002913 0.9000000000000364 0.36
v 2.9103830456733704E-14 0.3000000000000364 0.54
v 2.9103830456733704E-14 0.3000000000000364 0.36
v 0.30000000000002913 0.3000000000000364 0.54
v 0.30000000000002913 0.3000000000000364 0.36
v 2.9103830456733704E-14 0.9000000000000364 0.54
v 2.9103830456733704E-14 0.9000000000000364 0.36
v 2.9103830456733704E-14 0.3000000000000364 0.54
v 2.9103830456733704E-14 0.3000000000000364 0.36
v 2.9103830456733704E-14 0.9000000000000364 0.36
v 2.9103830456733704E-14 0.3000000000000364 0.36
v 0.30000000000002913 0.9000000000000364 0.36
v 0.30000000000002913 0.3000000000000364 0.36
f 50 52 51 49
f 54 56 55 53
f 58 60 59 57
f 62 64 63 61
f 66 68 67 65
f 70 69 71 72
g floor_4
v 0.5000000000000291 0.10000000000003638 0.54
v 0.5000000000000291 0.8000000000000363 0.54
v 0.30000000000002913 0.10000000000003638 0.54
v 0.30000000000002913 0.8000000000000363 0.54
v 0.30000000000002913 0.10000000000003638 0.54
v 0.30000000000002913 0.10000000000003638 0.36
v 0.5000000000000291 0.10000000000003638 0.54
v 0.5000000000000291 0.10000000000003638 0.36
v 0.30000000000002913 0.8000000000000363 0.54
v 0.30000000000002913 0.8000000000000363 0.36
v 0.30000000000002913 0.10000000000003638 0.54
v 0.30000000000002913 0.10000000000003638 0.36
v 0.5000000000000291 0.8000000000000363 0.54
v 0.5000000000000291 0.8000000000000363 0.36
v 0.30000000000002913 0.8000000000000363 0.54
v 0.30000000000002913 0.8000000000000363 0.36
v 0.5000000000000291 0.10000000000003638 0.54
v 0.5000000000000291 0.10000000000003638 0.36
v 0.5000000000000291 0.8000000000000363 0.54
v 0.5000000000000291 0.8000000000000363 0.36
v 0.5000000000000291 0.10000000000003638 0.36
v 0.5000000000000291 0.8000000000000363 0.36
v 0.30000000000002913 0.10000000000003638 0.36
v 0.30000000000002913 0.8000000000000363 0.36
f 74 76 75 73
f 78 80 79 77
f 82 84 83 81
f 86 88 87 85
f 90 92 91 89
f 94 93 95 96
