# Houscaper tile from 22.3dm Cube Frame group 213
# signature 01000110 variant 0
g blank_1
v 0.225 -1.4551915228366852E-14 0.13500000000001364
v 0.225 -1.4551915228366852E-14 0.5400000000000137
v 0.225 0.8999999999999855 0.13500000000001364
v 0.225 0.8999999999999855 0.5400000000000137
v 0.225 0.6749999999999855 0.13500000000001364
v 0.9 0.6749999999999855 0.13500000000001364
v 0.9 0.6749999999999855 5.684341886080802E-16
v 0.225 0.6749999999999855 0.13500000000001364
v 0.225 0.6749999999999855 5.684341886080802E-16
v 0.225 -1.4551915228366852E-14 0.13500000000001364
v 0.225 -1.4551915228366852E-14 0
v 0.225 0.6749999999999855 0.13500000000001364
v 0.225 0.6749999999999855 5.684341886080802E-16
v 0.225 0.6749999999999855 0.13500000000001364
v 0.9 0.6749999999999855 0.13500000000001364
v 0.9 0.8999999999999855 0.13500000000001364
v 0.225 0.8999999999999855 0.13500000000001364
f 1 5 4 2
f 4 5 3
f 7 6 8 9
f 11 13 12 10
f 15 16 17 14
