# Houscaper tile from 22.3dm Cube Frame group 120
# signature 22220111 variant 0
g arc_frame_1
v 1.4551915228366852E-14 0.30000000000000726 0
v 1.4551915228366852E-14 0.30000000000000726 0.54
v 0.30000000000001453 0.30000000000000726 0
v 0.30000000000001453 0.30000000000000726 0.54
f 4 2 1 3
g arc_frame_2
v 0.30000000000001453 7.275957614183426E-15 0
v 0.30000000000001453 7.275957614183426E-15 0.54
v 0.30000000000001453 0.30000000000000726 0
v 0.30000000000001453 0.30000000000000726 0.54
f 8 6 5 7
g floor_3
v 1.4551915228366852E-14 0.9000000000000073 0
v 1.4551915228366852E-14 7.275957614183426E-15 0
v 0.9000000000000146 0.9000000000000073 0
v 0.9000000000000146 7.275957614183426E-15 0
f 12 10 9 11
