# Houscaper tile from 22.3dm Cube Frame group 138
# signature 00011111 variant 1
g arc_frame_1
v 0 0.5 0
v 0 0.3 0
v 0.1 0.5 0
v 0.1 0.3 0
v 0.1 0.5 0
v 0.1 0.5 0.54
v 0 0.5 0
v 0 0.5 0.54
v 0.1 0.3 0
v 0.1 0.3 0.54
v 0.1 0.5 0
v 0.1 0.5 0.54
v 0 0.3 0
v 0 0.3 0.54
v 0.1 0.3 0
v 0.1 0.3 0.54
v 0 0.5 0
v 0 0.5 0.54
v 0 0.3 0
v 0 0.3 0.54
v 0 0.5 0.54
v 0 0.3 0.54
v 0.1 0.5 0.54
v 0.1 0.3 0.54
f 2 1 3 4
f 6 5 7 8
f 10 9 11 12
f 14 13 15 16
f 18 17 19 20
f 22 24 23 21
g arc_frame_2
v 0.4 0.9 0
v 0.6 0.9 0
v 0.4 0.8 0
v 0.6 0.8 0
v 0.4 0.8 0
v 0.4 0.8 0.54
v 0.4 0.9 0
v 0.4 0.9 0.54
v 0.6 0.8 0
v 0.6 0.8 0.54
v 0.4 0.8 0
v 0.4 0.8 0.54
v 0.6 0.9 0
v 0.6 0.9 0.54
v 0.6 0.8 0
v 0.6 0.8 0.54
v 0.4 0.9 0
v 0.4 0.9 0.54
v 0.6 0.9 0
v 0.6 0.9 0.54
v 0.4 0.9 0.54
v 0.6 0.9 0.54
v 0.4 0.8 0.54
v 0.6 0.8 0.54
f 26 28 27 25
f 30 32 31 29
f 34 36 35 33
f 38 40 39 37
f 42 44 43 41
f 46 45 47 48
g floor_3
v 0.9 0 0.54
v 0.9 0.3 0.54
v 0.6 0.3 0.54
v 0.6 0 0.54
v 0.6 0.3 0.54
v 0.6 0.3 0.36
v 0.6 0 0.54
v 0.6 0 0.36
v 0.9 0.3 0.54
v 0.9 0.3 0.36
v 0.6 0.3 0.54
v 0.6 0.3 0.36
v 0.9 0 0.54
v 0.9 0 0.36
v 0.9 0.3 0.54
v 0.9 0.3 0.36
v 0.6 0 0.54
v 0.6 0 0.36
v 0.9 0 0.54
v 0.9 0 0.36
v 0.9 0 0.36
v 0.9 0.3 0.36
v 0.6 0 0.36
v 0.6 0.3 0.36
f 49 50 51 52
f 54 56 55 53
f 58 60 59 57
f 62 64 63 61
f 66 68 67 65
f 69 71 72 70
g floor_4
v 0 0 0.54
v 0.6 0 0.54
v 0 0.3 0.54
v 0.6 0.3 0.54
v 0.6 0 0.54
v 0.6 0 0.36
v 0.6 0.3 0.54
v 0.6 0.3 0.36
v 0 0 0.54
v 0 0 0.36
v 0.6 0 0.54
v 0.6 0 0.36
v 0 0.3 0.54
v 0 0.3 0.36
v 0 0 0.54
v 0 0 0.36
v 0.6 0.3 0.54
v 0.6 0.3 0.36
v 0 0.3 0.54
v 0 0.3 0.36
v 0 0 0.36
v 0.6 0 0.36
v 0 0.3 0.36
v 0.6 0.3 0.36
f 74 76 75 73
f 78 80 79 77
f 82 84 83 81
f 86 88 87 85
f 90 92 91 89
f 94 93 95 96
g floor_5
v 0.9 0.9 0.54
v 0.9 0.3 0.54
v 0.6 0.9 0.54
v 0.6 0.3 0.54
v 0.9 0.3 0.54
v 0.9 0.3 0.36
v 0.6 0.3 0.54
v 0.6 0.3 0.36
v 0.9 0.9 0.54
v 0.9 0.9 0.36
v 0.9 0.3 0.54
v 0.9 0.3 0.36
v 0.6 0.9 0.54
v 0.6 0.9 0.36
v 0.9 0.9 0.54
v 0.9 0.9 0.36
v 0.6 0.3 0.54
v 0.6 0.3 0.36
v 0.6 0.9 0.54
v 0.6 0.9 0.36
v 0.9 0.9 0.36
v 0.9 0.3 0.36
v 0.6 0.9 0.36
v 0.6 0.3 0.36
f 98 97 99 100
f 102 101 103 104
f 106 105 107 108
f 110 109 111 112
f 114 113 115 116
f 118 120 119 117
g floor_6
v 0.6 0.3 0.54
v 0.6 0.3 0.36
v 0.1 0.3 0.54
v 0.1 0.3 0.36
v 0.1 0.3 0.54
v 0.1 0.5 0.54
v 0.6 0.3 0.54
v 0.6 0.5 0.54
v 0.1 0.3 0.36
v 0.1 0.5 0.36
v 0.1 0.3 0.54
v 0.1 0.5 0.54
v 0.6 0.3 0.36
v 0.6 0.5 0.36
v 0.1 0.3 0.36
v 0.1 0.5 0.36
v 0.6 0.3 0.54
v 0.6 0.5 0.54
v 0.6 0.3 0.36
v 0.6 0.5 0.36
v 0.6 0.5 0.54
v 0.6 0.5 0.36
v 0.1 0.5 0.54
v 0.1 0.5 0.36
f 122 121 123 124
f 126 125 127 128
f 130 129 131 132
f 134 133 135 136
f 138 137 139 140
f 142 144 143 141
g floor_7
v 0.6 0.8 0.54
v 0.6 0.8 0.36
v 0.6 0.5 0.54
v 0.6 0.5 0.36
v 0.6 0.5 0.54
v 0.4 0.5 0.54
v 0.6 0.8 0.54
v 0.4 0.8 0.54
v 0.6 0.5 0.36
v 0.4 0.5 0.36
v 0.6 0.5 0.54
v 0.4 0.5 0.54
v 0.6 0.8 0.36
v 0.4 0.8 0.36
v 0.6 0.5 0.36
v 0.4 0.5 0.36
v 0.6 0.8 0.54
v 0.4 0.8 0.54
v 0.6 0.8 0.36
v 0.4 0.8 0.36
v 0.4 0.8 0.54
v 0.4 0.8 0.36
v 0.4 0.5 0.54
v 0.4 0.5 0.36
f 146 145 147 148
f 150 149 151 152
f 154 153 155 156
f 158 157 159 160
f 162 161 163 164
f 166 168 167 165
