# Houscaper tile from 22.3dm Cube Frame group 157
# signature 00100022 variant 2
g arc_frame_1
v 0.5 0.9 0
v 0.3 0.9 0
v 0.5 0.8 0
v 0.3 0.8 0
v 0.5 0.8 0
v 0.5 0.8 0.54
v 0.5 0.9 0
v 0.5 0.9 0.54
v 0.3 0.8 0
v 0.3 0.8 0.54
v 0.5 0.8 0
v 0.5 0.8 0.54
v 0.3 0.9 0
v 0.3 0.9 0.54
v 0.3 0.8 0
v 0.3 0.8 0.54
v 0.5 0.9 0
v 0.5 0.9 0.54
v 0.3 0.9 0
v 0.3 0.9 0.54
v 0.5 0.9 0.54
v 0.3 0.9 0.54
v 0.5 0.8 0.54
v 0.3 0.8 0.54
f 2 1 3 4
f 6 5 7 8
f 10 9 11 12
f 14 13 15 16
f 18 17 19 20
f 22 24 23 21
g arc_frame_2
v 0.9 0.5 0
v 0.9 0.3 0
v 0.8 0.5 0
v 0.8 0.3 0
v 0.8 0.5 0
v 0.8 0.5 0.54
v 0.9 0.5 0
v 0.9 0.5 0.54
v 0.8 0.3 0
v 0.8 0.3 0.54
v 0.8 0.5 0
v 0.8 0.5 0.54
v 0.9 0.3 0
v 0.9 0.3 0.54
v 0.8 0.3 0
v 0.8 0.3 0.54
v 0.9 0.5 0
v 0.9 0.5 0.54
v 0.9 0.3 0
v 0.9 0.3 0.54
v 0.9 0.5 0.54
v 0.9 0.3 0.54
v 0.8 0.5 0.54
v 0.8 0.3 0.54
f 26 28 27 25
f 30 32 31 29
f 34 36 35 33
f 38 40 39 37
f 42 44 43 41
f 46 45 47 48
g floor_3
v 0 0.3 0.54
v 0.9 0.3 0.54
v 0 0.9 0.54
v 0.9 0.9 0.54
v 0 0.9 0.54
v 0 0.9 0.36
v 0 0.3 0.54
v 0 0.3 0.36
v 0.9 0.9 0.54
v 0.9 0.9 0.36
v 0 0.9 0.54
v 0 0.9 0.36
v 0.9 0.3 0.54
v 0.9 0.3 0.36
v 0.9 0.9 0.54
v 0.9 0.9 0.36
v 0 0.3 0.54
v 0 0.3 0.36
v 0.9 0.3 0.54
v 0.9 0.3 0.36
v 0 0.3 0.36
v 0.9 0.3 0.36
v 0 0.9 0.36
v 0.9 0.9 0.36
f 50 52 51 49
f 54 56 55 53
f 58 60 59 57
f 62 64 63 61
f 66 68 67 65
f 70 69 71 72
