# Houscaper tile from 22.3dm Cube Frame group 230
# signature 00100000 variant 1
g blank_1
v 0.22500000000000728 0.8999999999999927 0.405
v 0.9000000000000073 0.8999999999999927 0.405
v 0.22500000000000728 0.22499999999999273 0.405
v 0.9000000000000073 0.22499999999999273 0.405
v 0.22500000000000728 0.8999999999999927 0.405
v 0.22500000000000728 0.8999999999999927 4.547473508864641E-16
v 0.22500000000000728 0.22499999999999273 0.405
v 0.22500000000000728 0.22499999999999273 5.684341886080802E-17
v 0.9000000000000073 0.22499999999999273 0.405
v 0.9000000000000073 0.22499999999999273 -3.410605131648481E-16
v 0.22500000000000728 0.22499999999999273 0.405
v 0.22500000000000728 0.22499999999999273 5.684341886080802E-17
f 2 1 3 4
f 6 8 7 5
f 10 9 11 12
