# Houscaper tile from 22.3dm Cube Frame group 161
# signature 11112222 variant 4
g arc_frame_1
v 0.3 0.9 0
v 0.3 0.9 0.54
v 0.3 0.3 0
v 0.3 0.3 0.54
f 4 2 1 3
g arc_frame_2
v 0.9 0.3 0
v 0.9 0.3 0.54
v 0.3 0.3 0
v 0.3 0.3 0.54
f 8 6 5 7
g floor_3
v 0 0 0.54
v 0.9 0 0.54
v 0 0.9 0.54
v 0.9 0.9 0.54
v 0 0.9 0.54
v 0 0.9 0.36
v 0 0 0.54
v 0 0 0.36
v 0.9 0.9 0.54
v 0.9 0.9 0.36
v 0 0.9 0.54
v 0 0.9 0.36
v 0.9 0 0.54
v 0.9 0 0.36
v 0.9 0.9 0.54
v 0.9 0.9 0.36
v 0 0 0.54
v 0 0 0.36
v 0.9 0 0.54
v 0.9 0 0.36
v 0 0 0.36
v 0.9 0 0.36
v 0 0.9 0.36
v 0.9 0.9 0.36
f 10 12 11 9
f 14 16 15 13
f 18 20 19 17
f 22 24 23 21
f 26 28 27 25
f 30 29 31 32
