# Houscaper tile from 22.3dm Cube Frame group 222
# signature 00000010 variant 0
g blank_1
v 0.22500000000000364 0.8999999999999927 0.13500000000001364
v 0.22500000000000364 0.8999999999999927 0.5400000000000137
v 0.22500000000000364 0.22499999999999273 0.13500000000001364
v 0.22500000000000364 0.22499999999999273 0.5400000000000137
v 0.9000000000000037 0.22499999999999273 0.13500000000001364
v 0.9000000000000037 0.22499999999999273 0.5400000000000137
v 0.22500000000000364 0.22499999999999273 0.13500000000001364
v 0.22500000000000364 0.22499999999999273 0.5400000000000137
v 0.9000000000000037 0.22499999999999273 0.13500000000001364
v 0.9000000000000037 0.8999999999999927 0.13500000000001364
v 0.22500000000000364 0.22499999999999273 0.13500000000001364
v 0.22500000000000364 0.8999999999999927 0.13500000000001364
f 2 1 3 4
f 6 8 7 5
f 10 9 11 12
