# Houscaper tile from 22.3dm Cube Frame group 137
# signature 00111111 variant 2
g arc_frame_1
v 0.8 0.5 0
v 0.8 0.3 0
v 0.9 0.5 0
v 0.9 0.3 0
v 0.9 0.5 0
v 0.9 0.5 0.54
v 0.8 0.5 0
v 0.8 0.5 0.54
v 0.9 0.3 0
v 0.9 0.3 0.54
v 0.9 0.5 0
v 0.9 0.5 0.54
v 0.8 0.3 0
v 0.8 0.3 0.54
v 0.9 0.3 0
v 0.9 0.3 0.54
v 0.8 0.5 0
v 0.8 0.5 0.54
v 0.8 0.3 0
v 0.8 0.3 0.54
v 0.8 0.5 0.54
v 0.8 0.3 0.54
v 0.9 0.5 0.54
v 0.9 0.3 0.54
f 2 1 3 4
f 6 5 7 8
f 10 9 11 12
f 14 13 15 16
f 18 17 19 20
f 22 24 23 21
g arc_frame_2
v 0 0.5 0
v 0 0.3 0
v 0.1 0.5 0
v 0.1 0.3 0
v 0.1 0.5 0
v 0.1 0.5 0.54
v 0 0.5 0
v 0 0.5 0.54
v 0.1 0.3 0
v 0.1 0.3 0.54
v 0.1 0.5 0
v 0.1 0.5 0.54
v 0 0.3 0
v 0 0.3 0.54
v 0.1 0.3 0
v 0.1 0.3 0.54
v 0 0.5 0
v 0 0.5 0.54
v 0 0.3 0
v 0 0.3 0.54
v 0 0.5 0.54
v 0 0.3 0.54
v 0.1 0.5 0.54
v 0.1 0.3 0.54
f 26 25 27 28
f 30 29 31 32
f 34 33 35 36
f 38 37 39 40
f 42 41 43 44
f 46 48 47 45
g floor_3
v 0 0 0.54
v 0.9 0 0.54
v 0 0.3 0.54
v 0.9 0.3 0.54
v 0 0.3 0.54
v 0 0.3 0.36
v 0 0 0.54
v 0 0 0.36
v 0.9 0.3 0.54
v 0.9 0.3 0.36
v 0 0.3 0.54
v 0 0.3 0.36
v 0.9 0 0.54
v 0.9 0 0.36
v 0.9 0.3 0.54
v 0.9 0.3 0.36
v 0 0 0.54
v 0 0 0.36
v 0.9 0 0.54
v 0.9 0 0.36
v 0 0 0.36
v 0.9 0 0.36
v 0 0.3 0.36
v 0.9 0.3 0.36
f 50 52 51 49
f 54 56 55 53
f 58 60 59 57
f 62 64 63 61
f 66 68 67 65
f 70 69 71 72
g floor_4
v 0.8 0.3 0.54
v 0.8 0.3 0.36
v 0.1 0.3 0.54
v 0.1 0.3 0.36
v 0.1 0.3 0.54
v 0.1 0.5 0.54
v 0.8 0.3 0.54
v 0.8 0.5 0.54
v 0.1 0.3 0.36
v 0.1 0.5 0.36
v 0.1 0.3 0.54
v 0.1 0.5 0.54
v 0.8 0.3 0.36
v 0.8 0.5 0.36
v 0.1 0.3 0.36
v 0.1 0.5 0.36
v 0.8 0.3 0.54
v 0.8 0.5 0.54
v 0.8 0.3 0.36
v 0.8 0.5 0.36
v 0.8 0.5 0.54
v 0.8 0.5 0.36
v 0.1 0.5 0.54
v 0.1 0.5 0.36
f 74 73 75 76
f 78 77 79 80
f 82 81 83 84
f 86 85 87 88
f 90 89 91 92
f 94 96 95 93
