# Houscaper tile from 22.3dm Cube Frame group 174
# signature 50551011 variant 1
g arc_frame_1
v 0.9 0.3 0.54
v 0.9 0.3 0.27
v 0.6 0.3 0.54
v 0.6 0.3 0.27
v 0.6 0.3 0.54
v 0.6 0.3 0.27
v 0.6 0 0.54
v 0.6 0 0.27
f 2 1 3 4
f 6 5 7 8
g window_frame_2
v 0.9 0.35000000000000003 0.27
v 0.8125 0.35000000000000003 0.27
v 0.725 0.35000000000000003 0.27
v 0.6375000000000001 0.35000000000000003 0.27
v 0.9 0.3375 0.27
v 0.8125 0.3375 0.27
v 0.725 0.3375 0.27
v 0.6375000000000001 0.3375 0.27
v 0.9 0.325 0.27
v 0.8125 0.325 0.27
v 0.725 0.325 0.27
v 0.6375000000000001 0.325 0.27
v 0.9 0.3125 0.27
v 0.8125 0.3125 0.27
v 0.725 0.3125 0.27
v 0.6375000000000001 0.3125 0.27
v 0.9 0.3 0.27
v 0.8125 0.3 0.27
v 0.725 0.3 0.27
v 0.6375000000000001 0.3 0.27
v 0.6 0.35000000000000003 0.27
v 0.6 0.3 0.27
v 0.6 0 0.27
v 0.6 0.08750000000000001 0.27
v 0.6 0.17500000000000002 0.27
v 0.6 0.2625 0.27
v 0.5875 0 0.27
v 0.5875 0.08750000000000001 0.27
v 0.5875 0.17500000000000002 0.27
v 0.5875 0.2625 0.27
v 0.5750000000000001 0 0.27
v 0.5750000000000001 0.08750000000000001 0.27
v 0.5750000000000001 0.17500000000000002 0.27
v 0.5750000000000001 0.2625 0.27
v 0.5625 0 0.27
v 0.5625 0.08750000000000001 0.27
v 0.5625 0.17500000000000002 0.27
v 0.5625 0.2625 0.27
v 0.55 0 0.27
v 0.55 0.08750000000000001 0.27
v 0.55 0.17500000000000002 0.27
v 0.55 0.2625 0.27
v 0.55 0.35000000000000003 0.27
v 0.6 0.35000000000000003 0.27
v 0.6 0.3 0.27
f 14 10 9 13
f 15 11 10 14
f 16 12 11 15
f 18 14 13 17
f 19 15 14 18
f 20 16 15 19
f 22 18 17 21
f 23 19 18 22
f 24 20 19 23
f 26 22 21 25
f 27 23 22 26
f 28 24 23 27
f 29 12 16
f 29 16 20
f 20 30 29
f 30 20 24
f 24 28 30
f 36 32 31 35
f 37 33 32 36
f 38 34 33 37
f 40 36 35 39
f 41 37 36 40
f 42 38 37 41
f 44 40 39 43
f 45 41 40 44
f 46 42 41 45
f 48 44 43 47
f 49 45 44 48
f 50 46 45 49
f 53 34 38
f 38 52 53
f 52 38 42
f 51 42 46
f 46 50 51
f 52 42 51
