# Houscaper tile from 22.3dm Cube Frame group 232
# signature 01110110 variant 4
g blank_1
v 7.275957614183426E-15 0.9000000000000219 0.405
v 0.22500000000000728 0.9000000000000219 0.405
v 0.22500000000000728 2.1827872842550278E-14 0.405
v 7.275957614183426E-15 0.22500000000002182 0.405
v 0.22500000000000728 0.9000000000000219 0.405
v 0.22500000000000728 2.1827872842550278E-14 0.405
v 0.22500000000000728 0.9000000000000219 0.54
v 0.22500000000000728 2.1827872842550278E-14 0.54
v 7.275957614183426E-15 0.22500000000002182 0.405
v 7.275957614183426E-15 0.22500000000002182 0
v 0.22500000000000728 2.1827872842550278E-14 0
v 0.22500000000000728 2.1827872842550278E-14 0.405
f 4 1 2 3
f 6 5 7 8
f 10 9 12 11
