# Houscaper tile from 22.3dm Cube Frame group 150
# signature 01110110 variant 2
g arc_frame_1
v 0.5 0.10000000000001819 0
v 0.3 0.10000000000001819 0
v 0.5 1.8189894035458565E-14 0
v 0.3 1.8189894035458565E-14 0
v 0.5 1.8189894035458565E-14 0
v 0.5 1.8189894035458565E-14 0.54
v 0.5 0.10000000000001819 0
v 0.5 0.10000000000001819 0.54
v 0.3 1.8189894035458565E-14 0
v 0.3 1.8189894035458565E-14 0.54
v 0.5 1.8189894035458565E-14 0
v 0.5 1.8189894035458565E-14 0.54
v 0.3 0.10000000000001819 0
v 0.3 0.10000000000001819 0.54
v 0.3 1.8189894035458565E-14 0
v 0.3 1.8189894035458565E-14 0.54
v 0.5 0.10000000000001819 0
v 0.5 0.10000000000001819 0.54
v 0.3 0.10000000000001819 0
v 0.3 0.10000000000001819 0.54
v 0.5 0.10000000000001819 0.54
v 0.3 0.10000000000001819 0.54
v 0.5 1.8189894035458565E-14 0.54
v 0.3 1.8189894035458565E-14 0.54
f 2 1 3 4
f 6 5 7 8
f 10 9 11 12
f 14 13 15 16
f 18 17 19 20
f 22 24 23 21
g arc_frame_2
v 0.1 0.5000000000000182 -0.11323807525634766
v 0 0.5000000000000182 -0.11323807525634766
v 0 0.9000000000000182 0.12676192474365236
v 0.1 0.9000000000000182 0.12676192474365236
v 0.1 0.3000000000000182 0
v 0.1 0.5000000000000182 -0.11323807525634766
v 0.1 0.9000000000000182 0.12676192474365236
v 0.1 0.5000000000000182 0
v 0.1 0.9000000000000182 0.18676191711425782
v 0.1 0.8000000000000183 0.18676191711425782
v 0.1 0.8000000000000183 0.3
v 0 0.3000000000000182 0
v 0 0.9000000000000182 0.36
v 0 0.9000000000000182 0.12676192474365236
v 0 0.5000000000000182 -0.11323807525634766
v 0 0.8000000000000183 0.3
v 0 0.5000000000000182 0
v 0.1 0.9000000000000182 0.18676191711425782
v 0.3 0.9000000000000182 0.54
v 0.5 0.9000000000000182 0.54
v 0.5 0.9000000000000182 0.4267619323730469
v 0.1 0.9000000000000182 0.42
v 0.1 0.9000000000000182 0.36
v 0.3 0.9000000000000182 0.54
v 0.1 0.8000000000000183 0.42
v 0.3 0.8000000000000183 0.54
v 0.1 0.9000000000000182 0.42
v 0.1 0.9000000000000182 0.42
v 0.1 0.9000000000000182 0.12676192474365236
v 0 0.9000000000000182 0.12676192474365236
v 0.1 0.9000000000000182 0.18676191711425782
v 0.1 0.9000000000000182 0.36
v 0 0.9000000000000182 0.36
v 0.1 0.8000000000000183 0.18676191711425782
v 0.5 0.8000000000000183 0.4267619323730469
v 0.5 0.9000000000000182 0.4267619323730469
v 0.1 0.9000000000000182 0.18676191711425782
v 0.1 0.8000000000000183 0.18676191711425782
v 0.5 0.8000000000000183 0.4267619323730469
v 0.5 0.8000000000000183 0.54
v 0.3 0.8000000000000183 0.54
v 0.1 0.8000000000000183 0.42
v 0.1 0.8000000000000183 0.3
v 0 0.3000000000000182 0
v 0 0.8000000000000183 0.3
v 0.1 0.8000000000000183 0.3
v 0.1 0.3000000000000182 0
v 0 0.9000000000000182 0.36
v 0 0.8000000000000183 0.3
v 0.00090625 0.8000000000000183 0.36054281616210937
v 0.1 0.8000000000000183 0.42
v 0.1 0.8000000000000183 0.3
v 0 0.8000000000000183 0.3
v 0.00090625 0.8000000000000183 0.36054281616210937
v 0.1 0.9000000000000182 0.42
v 0 0.9000000000000182 0.36
v 0.1 0.8000000000000183 0.42
v 0.00090625 0.8000000000000183 0.36054281616210937
f 28 25 26 27
f 34 35 32
f 29 32 35
f 31 32 30
f 31 33 34
f 32 31 34
f 38 39 41
f 40 38 41
f 41 36 40
f 38 40 37
f 44 45 43
f 42 47 45
f 43 47 46
f 45 47 43
f 48 51 49 50
f 57 52 56
f 55 54 57 56
f 53 54 55
f 59 58 61 60
f 65 66 67
f 64 65 67
f 64 67 63
f 62 63 67
f 69 68 71 70
f 73 74 72
f 76 78 77
f 78 76 75
f 80 82 81 79
