# Houscaper tile from 22.3dm Cube Frame group 223
# signature 10010011 variant 0
g blank_1
v 0.6749999999999855 1.8189894035458565E-14 0.4050000000000136
v -1.4551915228366852E-14 1.8189894035458565E-14 0.4050000000000136
v 0.6749999999999855 0.22500000000001819 0.4050000000000136
v -1.4551915228366852E-14 0.22500000000001819 0.4050000000000136
f 2 1 3 4
g blank_2
v 0.6749999999999855 1.8189894035458565E-14 0.4050000000000136
v 0.6749999999999855 1.8189894035458565E-14 5.684341886080802E-16
v 0.6749999999999855 0.9000000000000182 5.684341886080802E-16
v 0.6749999999999855 0.22500000000001819 0.4050000000000136
v 0.6749999999999855 0.22500000000001819 0.13500000000001364
v 0.6749999999999855 0.9000000000000182 0.13500000000001364
f 6 5 9
f 8 9 5
f 7 6 9
f 9 10 7
g blank_3
v 0.8999999999999855 0.22500000000001819 0.13500000000001364
v 0.8999999999999855 0.22500000000001819 0.5400000000000137
v -1.4551915228366852E-14 0.22500000000001819 0.5400000000000137
v 0.6749999999999855 0.22500000000001819 0.4050000000000136
v -1.4551915228366852E-14 0.22500000000001819 0.4050000000000136
v 0.6749999999999855 0.22500000000001819 0.13500000000001364
f 14 12 11
f 16 14 11
f 13 14 15
f 12 14 13
