# Houscaper tile from 22.3dm Cube Frame group 145
# signature 00000111 variant 2
g floor_1
v 0.3 0.9 0.54
v 0.9 0.9 0.54
v 0.9 0.3 0.54
v 0.9 0 0.54
v 0.3 0 0.54
v 0.3 0.3 0.54
v 0 0.3 0.54
v 0 0.9 0.54
v 0.9 0.9 0.54
v 0.9 0.9 0.36
v 0.3 0.9 0.54
v 0.3 0.9 0.36
v 0.9 0.3 0.54
v 0.9 0.3 0.36
v 0.9 0.9 0.54
v 0.9 0.9 0.36
v 0.9 0 0.54
v 0.9 0 0.36
v 0.9 0.3 0.54
v 0.9 0.3 0.36
v 0.3 0 0.54
v 0.3 0 0.36
v 0.9 0 0.54
v 0.9 0 0.36
v 0.3 0.3 0.54
v 0.3 0.3 0.36
v 0.3 0 0.54
v 0.3 0 0.36
v 0 0.3 0.54
v 0 0.3 0.36
v 0.3 0.3 0.54
v 0.3 0.3 0.36
v 0 0.9 0.54
v 0 0.9 0.36
v 0 0.3 0.54
v 0 0.3 0.36
v 0.3 0.9 0.54
v 0.3 0.9 0.36
v 0 0.9 0.54
v 0 0.9 0.36
v 0.3 0.9 0.36
v 0.9 0.9 0.36
v 0.9 0.3 0.36
v 0.9 0 0.36
v 0.3 0 0.36
v 0.3 0.3 0.36
v 0 0.3 0.36
v 0 0.9 0.36
f 7 6 1 8
f 6 3 2 1
f 3 6 5 4
f 10 12 11 9
f 14 16 15 13
f 18 20 19 17
f 22 24 23 21
f 26 28 27 25
f 30 32 31 29
f 34 36 35 33
f 38 40 39 37
f 47 48 41 46
f 46 41 42 43
f 43 44 45 46
