# Houscaper tile from 22.3dm Cube Frame group 219
# signature 00100111 variant 3
g blank_1
v 0.225 0.9 0.13500000000001364
v 0.225 0.9 5.684341886080802E-16
v 0.225 0.225 0.13500000000001364
v 0.225 0.225 5.684341886080802E-16
f 4 3 1 2
g blank_2
v 0.9 0.225 0.13500000000001364
v 0.9 0.225 0
v 0.225 0.225 0.13500000000001364
v 0.225 0.225 0
f 8 6 5 7
g blank_3
v 0.225 0 0.13500000000001364
v 0.9 0 0.13500000000001364
v 0.9 0.225 0.13500000000001364
v 0.225 0.225 0.13500000000001364
v 0.225 0.9 0.13500000000001364
v 0 0.9 0.13500000000001364
v 0 0.225 0.13500000000001364
f 13 15 14
f 12 15 13
f 11 10 9 12
f 15 12 9
g blank_4
v 0 0.225 0.13500000000001364
v 0 0.225 0.5400000000000137
v 0.225 0 0.13500000000001364
v 0.225 0 0.5400000000000137
f 19 17 16 18
