# Houscaper tile from 22.3dm Cube Frame group 164
# signature 00000222 variant 1
g arc_frame_1
v 0.1 0.5 0
v 0.1 0.3 0
v 0 0.5 0
v 0 0.3 0
v 0 0.5 0
v 0 0.5 0.54
v 0.1 0.5 0
v 0.1 0.5 0.54
v 0 0.3 0
v 0 0.3 0.54
v 0 0.5 0
v 0 0.5 0.54
v 0.1 0.3 0
v 0.1 0.3 0.54
v 0 0.3 0
v 0 0.3 0.54
v 0.1 0.5 0
v 0.1 0.5 0.54
v 0.1 0.3 0
v 0.1 0.3 0.54
v 0.1 0.5 0.54
v 0.1 0.3 0.54
v 0 0.5 0.54
v 0 0.3 0.54
f 2 4 3 1
f 6 8 7 5
f 10 12 11 9
f 14 16 15 13
f 18 20 19 17
f 22 21 23 24
g arc_frame_2
v 0.5 0.1 0
v 0.3 0.1 0
v 0.5 0 0
v 0.3 0 0
v 0.5 0 0
v 0.5 0 0.54
v 0.5 0.1 0
v 0.5 0.1 0.54
v 0.3 0 0
v 0.3 0 0.54
v 0.5 0 0
v 0.5 0 0.54
v 0.3 0.1 0
v 0.3 0.1 0.54
v 0.3 0 0
v 0.3 0 0.54
v 0.5 0.1 0
v 0.5 0.1 0.54
v 0.3 0.1 0
v 0.3 0.1 0.54
v 0.5 0.1 0.54
v 0.3 0.1 0.54
v 0.5 0 0.54
v 0.3 0 0.54
f 26 25 27 28
f 30 29 31 32
f 34 33 35 36
f 38 37 39 40
f 42 41 43 44
f 46 48 47 45
g floor_3
v 0.3 0.3 0.54
v 0 0.3 0.54
v 0 0.9 0.54
v 0.3 0.9 0.54
v 0.9 0.9 0.54
v 0.9 0.3 0.54
v 0.9 0 0.54
v 0.3 0 0.54
v 0 0.3 0.54
v 0 0.3 0.34
v 0.3 0.3 0.54
v 0.3 0.3 0.34
v 0 0.9 0.54
v 0 0.9 0.34
v 0 0.3 0.54
v 0 0.3 0.34
v 0.3 0.9 0.54
v 0.3 0.9 0.34
v 0 0.9 0.54
v 0 0.9 0.34
v 0.9 0.9 0.54
v 0.9 0.9 0.34
v 0.3 0.9 0.54
v 0.3 0.9 0.34
v 0.9 0.3 0.54
v 0.9 0.3 0.34
v 0.9 0.9 0.54
v 0.9 0.9 0.34
v 0.9 0 0.54
v 0.9 0 0.34
v 0.9 0.3 0.54
v 0.9 0.3 0.34
v 0.3 0 0.54
v 0.3 0 0.34
v 0.9 0 0.54
v 0.9 0 0.34
v 0.3 0.3 0.54
v 0.3 0.3 0.34
v 0.3 0 0.54
v 0.3 0 0.34
v 0.3 0.3 0.34
v 0 0.3 0.34
v 0 0.9 0.34
v 0.3 0.9 0.34
v 0.9 0.9 0.34
v 0.9 0.3 0.34
v 0.9 0 0.34
v 0.3 0 0.34
f 52 51 50 49
f 49 54 53 52
f 56 55 54 49
f 58 60 59 57
f 62 64 63 61
f 66 68 67 65
f 70 72 71 69
f 74 76 75 73
f 78 80 79 77
f 82 84 83 81
f 86 88 87 85
f 92 89 90 91
f 89 92 93 94
f 96 89 94 95
g floor_4
v 0.3 0.3 0.34
v 0 0.3 0.34
v 0 0.9 0.34
v 0.3 0.9 0.34
v 0.9 0.9 0.34
v 0.9 0.3 0.34
v 0.9 0 0.34
v 0.3 0 0.34
v 0 0.3 0.34
v 0 0.3 0.14
v 0.3 0.3 0.34
v 0.3 0.3 0.14
v 0 0.9 0.34
v 0 0.9 0.14
v 0 0.3 0.34
v 0 0.3 0.14
v 0.3 0.9 0.34
v 0.3 0.9 0.14
v 0 0.9 0.34
v 0 0.9 0.14
v 0.9 0.9 0.34
v 0.9 0.9 0.14
v 0.3 0.9 0.34
v 0.3 0.9 0.14
v 0.9 0.3 0.34
v 0.9 0.3 0.14
v 0.9 0.9 0.34
v 0.9 0.9 0.14
v 0.9 0 0.34
v 0.9 0 0.14
v 0.9 0.3 0.34
v 0.9 0.3 0.14
v 0.3 0 0.34
v 0.3 0 0.14
v 0.9 0 0.34
v 0.9 0 0.14
v 0.3 0.3 0.34
v 0.3 0.3 0.14
v 0.3 0 0.34
v 0.3 0 0.14
v 0.3 0.3 0.14
v 0 0.3 0.14
v 0 0.9 0.14
v 0.3 0.9 0.14
v 0.9 0.9 0.14
v 0.9 0.3 0.14
v 0.9 0 0.14
v 0.3 0 0.14
f 100 99 98 97
f 97 102 101 100
f 104 103 102 97
f 106 108 107 105
f 110 112 111 109
f 114 116 115 113
f 118 120 119 117
f 122 124 123 121
f 126 128 127 125
f 130 132 131 129
f 134 136 135 133
f 140 137 138 139
f 137 140 141 142
f 144 137 142 143
