# Houscaper tile from 22.3dm Cube Frame group 204
# signature 01101111 variant 1
g arc_frame_1
v 0.30000000000001453 0.8999999999999855 0
v 0.30000000000001453 0.8999999999999855 0.54
v 0.30000000000001453 -1.4551915228366852E-14 0
v 0.30000000000001453 -1.4551915228366852E-14 0.54
f 4 2 1 3
g floor_2
v 1.4551915228366852E-14 0.8999999999999855 0.54
v 1.4551915228366852E-14 -1.4551915228366852E-14 0.54
v 0.30000000000001453 0.8999999999999855 0.54
v 0.30000000000001453 -1.4551915228366852E-14 0.54
f 8 6 5 7
