# Houscaper tile from 22.3dm Cube Frame group 119
# signature 00010222 variant 0
g arc_frame_1
v 0.9 0.3000000000000091 0
v 0.9 0.3000000000000091 0.54
v 0.3 0.3000000000000091 0
v 0.3 0.3000000000000091 0.54
f 4 2 1 3
g arc_frame_2
v 0.3 0.9000000000000091 0
v 0.3 0.9000000000000091 0.54
v 0.3 0.3000000000000091 0
v 0.3 0.3000000000000091 0.54
f 8 6 5 7
g floor_3
v 0.3 0.9000000000000091 0.54
v 0.9 0.9000000000000091 0.54
v 0.9 0.3000000000000091 0.54
v 0.9 9.094947017729283E-15 0.54
v 0.3 9.094947017729283E-15 0.54
v 0.3 0.3000000000000091 0.54
v 0 0.3000000000000091 0.54
v 0 0.9000000000000091 0.54
f 15 16 9 14
f 14 9 10 11
f 11 12 13 14
