# Houscaper tile from 22.3dm Cube Frame group 132
# signature 11110001 variant 1
g arc_frame_1
v 0.9 0.9 0.12676192474365236
v 0.6 0.9 0.54
v 0.4 0.9 0.54
v 0.4 0.9 0.4267619323730469
v 0.9 0.9 0.36
v 0.4 0.8 0.4267619323730469
v 0.9 0.9 0.12676192474365236
v 0.4 0.9 0.4267619323730469
v 0.9 0.8 0.12676192474365236
v 0.9 0.8 0.12676192474365236
v 0.4 0.8 0.4267619323730469
v 0.4 0.8 0.54
v 0.6 0.8 0.54
v 0.9 0.8 0.36
v 0.9 0.9 0.36
v 0.6 0.9 0.54
v 0.6 0.8 0.54
v 0.9 0.8 0.36
f 4 2 5 1
f 3 2 4
f 6 8 7 9
f 12 14 13
f 11 10 12
f 14 12 10
f 16 17 18 15
g arc_frame_2
v 0 0 0.12676192474365236
v 0 0.3 0.54
v 0 0.5 0.54
v 0 0.5 0.4267619323730469
v 0 0 0.36
v 0.1 0.5 0.4267619323730469
v 0 0 0.12676192474365236
v 0 0.5 0.4267619323730469
v 0.1 0 0.12676192474365236
v 0.1 0 0.12676192474365236
v 0.1 0.5 0.4267619323730469
v 0.1 0.5 0.54
v 0.1 0.3 0.54
v 0.1 0 0.36
v 0 0 0.36
v 0 0.3 0.54
v 0.1 0.3 0.54
v 0.1 0 0.36
f 21 22 19
f 20 21 23
f 19 23 21
f 24 27 25 26
f 30 31 32
f 29 30 28
f 32 28 30
f 34 33 36 35
