# Houscaper tile from 22.3dm Cube Frame group 148
# signature 01110010 variant 0
g arc_frame_1
v 0.10000286105461419 0.5000004196483752 -0.11323807525634766
v 2.861054614186287E-06 0.5000004196483752 -0.11323807525634766
v 2.861054614186287E-06 0.9000004196483751 0.12676192474365236
v 0.10000286105461419 0.9000004196483751 0.12676192474365236
v 0.10000286105461419 0.3000004196483751 0
v 0.10000286105461419 0.5000004196483752 -0.11323807525634766
v 0.10000286105461419 0.9000004196483751 0.12676192474365236
v 0.10000286105461419 0.5000004196483752 0
v 0.10000286105461419 0.9000004196483751 0.18676191711425782
v 0.10000286105461419 0.8000004196483751 0.18676191711425782
v 0.10000286105461419 0.8000004196483751 0.3
v 2.861054614186287E-06 0.3000004196483751 0
v 2.861054614186287E-06 0.9000004196483751 0.36
v 2.861054614186287E-06 0.9000004196483751 0.12676192474365236
v 2.861054614186287E-06 0.5000004196483752 -0.11323807525634766
v 2.861054614186287E-06 0.8000004196483751 0.3
v 2.861054614186287E-06 0.5000004196483752 0
v 0.10000286105461419 0.9000004196483751 0.18676191711425782
v 0.3000028610546142 0.9000004196483751 0.54
v 0.5000028610546142 0.9000004196483751 0.54
v 0.5000028610546142 0.9000004196483751 0.4267619323730469
v 0.10000286105461419 0.9000004196483751 0.42
v 0.10000286105461419 0.9000004196483751 0.36
v 0.3000028610546142 0.9000004196483751 0.54
v 0.10000286105461419 0.8000004196483751 0.42
v 0.3000028610546142 0.8000004196483751 0.54
v 0.10000286105461419 0.9000004196483751 0.42
v 0.10000286105461419 0.9000004196483751 0.42
v 0.10000286105461419 0.9000004196483751 0.12676192474365236
v 2.861054614186287E-06 0.9000004196483751 0.12676192474365236
v 0.10000286105461419 0.9000004196483751 0.18676191711425782
v 0.10000286105461419 0.9000004196483751 0.36
v 2.861054614186287E-06 0.9000004196483751 0.36
v 0.10000286105461419 0.8000004196483751 0.18676191711425782
v 0.5000028610546142 0.8000004196483751 0.4267619323730469
v 0.5000028610546142 0.9000004196483751 0.4267619323730469
v 0.10000286105461419 0.9000004196483751 0.18676191711425782
v 0.10000286105461419 0.8000004196483751 0.18676191711425782
v 0.5000028610546142 0.8000004196483751 0.4267619323730469
v 0.5000028610546142 0.8000004196483751 0.54
v 0.3000028610546142 0.8000004196483751 0.54
v 0.10000286105461419 0.8000004196483751 0.42
v 0.10000286105461419 0.8000004196483751 0.3
v 2.861054614186287E-06 0.3000004196483751 0
v 2.861054614186287E-06 0.8000004196483751 0.3
v 0.10000286105461419 0.8000004196483751 0.3
v 0.10000286105461419 0.3000004196483751 0
v 2.861054614186287E-06 0.9000004196483751 0.36
v 2.861054614186287E-06 0.8000004196483751 0.3
v 0.0009012985546141863 0.8000004196483751 0.36054281616210937
v 0.10000286105461419 0.8000004196483751 0.42
v 0.10000286105461419 0.8000004196483751 0.3
v 2.861054614186287E-06 0.8000004196483751 0.3
v 0.0009012985546141863 0.8000004196483751 0.36054281616210937
v 0.10000286105461419 0.9000004196483751 0.42
v 2.861054614186287E-06 0.9000004196483751 0.36
v 0.10000286105461419 0.8000004196483751 0.42
v 0.0009012985546141863 0.8000004196483751 0.36054281616210937
f 4 1 2 3
f 10 11 8
f 5 8 11
f 7 8 6
f 7 9 10
f 8 7 10
f 14 15 17
f 13 14 17
f 17 12 16
f 17 16 13
f 20 21 23
f 18 23 21
f 19 23 22
f 20 23 19
f 24 27 25 26
f 33 28 32
f 31 30 33 32
f 29 30 31
f 35 34 37 36
f 41 42 43
f 40 41 43
f 40 43 39
f 38 39 43
f 45 44 47 46
f 49 50 48
f 52 54 53
f 54 52 51
f 56 58 57 55
g arc_frame_2
v 0.5000028610546142 0.1000004196483751 -0.11323807525634766
v 0.5000028610546142 4.1964837510022333E-07 -0.11323807525634766
v 0.9000028610546142 4.1964837510022333E-07 0.12676192474365236
v 0.9000028610546142 0.1000004196483751 0.12676192474365236
v 0.3000028610546142 0.1000004196483751 0
v 0.5000028610546142 0.1000004196483751 -0.11323807525634766
v 0.9000028610546142 0.1000004196483751 0.12676192474365236
v 0.5000028610546142 0.1000004196483751 0
v 0.9000028610546142 0.1000004196483751 0.18676191711425782
v 0.8000028610546142 0.1000004196483751 0.18676191711425782
v 0.8000028610546142 0.1000004196483751 0.3
v 0.3000028610546142 4.1964837510022333E-07 0
v 0.9000028610546142 4.1964837510022333E-07 0.36
v 0.9000028610546142 4.1964837510022333E-07 0.12676192474365236
v 0.5000028610546142 4.1964837510022333E-07 -0.11323807525634766
v 0.8000028610546142 4.1964837510022333E-07 0.3
v 0.5000028610546142 4.1964837510022333E-07 0
v 0.9000028610546142 0.1000004196483751 0.18676191711425782
v 0.9000028610546142 0.3000004196483751 0.54
v 0.9000028610546142 0.5000004196483752 0.54
v 0.9000028610546142 0.5000004196483752 0.4267619323730469
v 0.9000028610546142 0.1000004196483751 0.42
v 0.9000028610546142 0.1000004196483751 0.36
v 0.9000028610546142 0.3000004196483751 0.54
v 0.8000028610546142 0.1000004196483751 0.42
v 0.8000028610546142 0.3000004196483751 0.54
v 0.9000028610546142 0.1000004196483751 0.42
v 0.9000028610546142 0.1000004196483751 0.42
v 0.9000028610546142 0.1000004196483751 0.12676192474365236
v 0.9000028610546142 4.1964837510022333E-07 0.12676192474365236
v 0.9000028610546142 0.1000004196483751 0.18676191711425782
v 0.9000028610546142 0.1000004196483751 0.36
v 0.9000028610546142 4.1964837510022333E-07 0.36
v 0.8000028610546142 0.1000004196483751 0.18676191711425782
v 0.8000028610546142 0.5000004196483752 0.4267619323730469
v 0.9000028610546142 0.5000004196483752 0.4267619323730469
v 0.9000028610546142 0.1000004196483751 0.18676191711425782
v 0.8000028610546142 0.1000004196483751 0.18676191711425782
v 0.8000028610546142 0.5000004196483752 0.4267619323730469
v 0.8000028610546142 0.5000004196483752 0.54
v 0.8000028610546142 0.3000004196483751 0.54
v 0.8000028610546142 0.1000004196483751 0.42
v 0.8000028610546142 0.1000004196483751 0.3
v 0.3000028610546142 4.1964837510022333E-07 0
v 0.8000028610546142 4.1964837510022333E-07 0.3
v 0.8000028610546142 0.1000004196483751 0.3
v 0.3000028610546142 0.1000004196483751 0
v 0.9000028610546142 4.1964837510022333E-07 0.36
v 0.8000028610546142 4.1964837510022333E-07 0.3
v 0.8000028610546142 0.0009047165233751003 0.36054281616210937
v 0.8000028610546142 0.1000004196483751 0.42
v 0.8000028610546142 0.1000004196483751 0.3
v 0.8000028610546142 4.1964837510022333E-07 0.3
v 0.8000028610546142 0.0009047165233751003 0.36054281616210937
v 0.9000028610546142 0.1000004196483751 0.42
v 0.9000028610546142 4.1964837510022333E-07 0.36
v 0.8000028610546142 0.1000004196483751 0.42
v 0.8000028610546142 0.0009047165233751003 0.36054281616210937
f 62 61 60 59
f 68 66 69
f 63 69 66
f 65 64 66
f 65 68 67
f 66 68 65
f 72 75 73
f 74 75 72
f 75 74 70
f 72 71 74
f 79 78 76
f 81 76 78
f 77 80 81
f 78 77 81
f 82 84 83 85
f 91 90 86
f 89 90 91 88
f 87 89 88
f 93 94 95 92
f 99 101 100
f 98 101 99
f 98 97 101
f 96 101 97
f 103 104 105 102
f 107 106 108
f 110 111 112
f 112 109 110
f 114 113 115 116
