# Houscaper tile from 22.3dm Cube Frame group 193
# signature 01110010 variant 1
g arc_frame_1
v 1.4551915228366852E-14 0.9000000000000182 0.365
v 1.4551915228366852E-14 0.3000000000000182 0
v 0.30000000000001453 0.3000000000000182 0.54
f 2 1 3
g arc_frame_2
v 1.4551915228366852E-14 0.9000000000000182 0.365
v 0.30000000000001453 0.9000000000000182 0.54
v 0.30000000000001453 0.3000000000000182 0.54
f 6 4 5
g arc_frame_3
v 1.4551915228366852E-14 0.3000000000000182 0
v 0.30000000000001453 0.3000000000000182 0
v 0.30000000000001453 0.3000000000000182 0.54
f 9 7 8
g arc_frame_4
v 0.30000000000001453 0.3000000000000182 0.54
v 0.30000000000001453 1.8189894035458565E-14 0
v 0.9000000000000146 1.8189894035458565E-14 0.365
f 11 10 12
g arc_frame_5
v 0.9000000000000146 0.3000000000000182 0.54
v 0.30000000000001453 0.3000000000000182 0.54
v 0.9000000000000146 1.8189894035458565E-14 0.365
f 14 13 15
g arc_frame_6
v 0.30000000000001453 1.8189894035458565E-14 0
v 0.30000000000001453 0.3000000000000182 0
v 0.30000000000001453 0.3000000000000182 0.54
f 18 16 17
