# Houscaper tile from 22.3dm Cube Frame group 129
# signature 11110000 variant 4
g arc_frame_1
v 0.1 0.9 0.36
v 0.1 0.9 0.12676192474365236
v 0.8 0.9 0.36
v 0.8 0.9 0.12676192474365236
v 0.8 0.9 0.36
v 0.8 0.8 0.36
v 0.1 0.9 0.36
v 0.1 0.8 0.36
v 0.8 0.9 0.12676192474365236
v 0.8 0.8 0.12676192474365236
v 0.8 0.9 0.36
v 0.8 0.8 0.36
v 0.1 0.9 0.12676192474365236
v 0.1 0.8 0.12676192474365236
v 0.8 0.9 0.12676192474365236
v 0.8 0.8 0.12676192474365236
v 0.1 0.9 0.36
v 0.1 0.8 0.36
v 0.1 0.9 0.12676192474365236
v 0.1 0.8 0.12676192474365236
v 0.1 0.8 0.36
v 0.1 0.8 0.12676192474365236
v 0.8 0.8 0.36
v 0.8 0.8 0.12676192474365236
f 2 1 3 4
f 6 5 7 8
f 10 9 11 12
f 14 13 15 16
f 18 17 19 20
f 22 24 23 21
g arc_frame_2
v 0.1 0.1 0.36
v 0.1 0.1 0.12676192474365236
v 0.8 0.1 0.36
v 0.8 0.1 0.12676192474365236
v 0.8 0.1 0.36
v 0.8 0 0.36
v 0.1 0.1 0.36
v 0.1 0 0.36
v 0.8 0.1 0.12676192474365236
v 0.8 0 0.12676192474365236
v 0.8 0.1 0.36
v 0.8 0 0.36
v 0.1 0.1 0.12676192474365236
v 0.1 0 0.12676192474365236
v 0.8 0.1 0.12676192474365236
v 0.8 0 0.12676192474365236
v 0.1 0.1 0.36
v 0.1 0 0.36
v 0.1 0.1 0.12676192474365236
v 0.1 0 0.12676192474365236
v 0.1 0 0.36
v 0.1 0 0.12676192474365236
v 0.8 0 0.36
v 0.8 0 0.12676192474365236
f 26 25 27 28
f 30 29 31 32
f 34 33 35 36
f 38 37 39 40
f 42 41 43 44
f 46 48 47 45
g arc_frame_3
v 0.9 0.9 0.36
v 0.9 0.9 0.12676192474365236
v 0.9 0 0.36
v 0.9 0 0.12676192474365236
v 0.9 0 0.36
v 0.8 0 0.36
v 0.9 0.9 0.36
v 0.8 0.9 0.36
v 0.9 0 0.12676192474365236
v 0.8 0 0.12676192474365236
v 0.9 0 0.36
v 0.8 0 0.36
v 0.9 0.9 0.12676192474365236
v 0.8 0.9 0.12676192474365236
v 0.9 0 0.12676192474365236
v 0.8 0 0.12676192474365236
v 0.9 0.9 0.36
v 0.8 0.9 0.36
v 0.9 0.9 0.12676192474365236
v 0.8 0.9 0.12676192474365236
v 0.8 0.9 0.36
v 0.8 0.9 0.12676192474365236
v 0.8 0 0.36
v 0.8 0 0.12676192474365236
f 50 49 51 52
f 54 53 55 56
f 58 57 59 60
f 62 61 63 64
f 66 65 67 68
f 70 72 71 69
g arc_frame_4
v 0.1 0.9 0.36
v 0.1 0.9 0.12676192474365236
v 0.1 0 0.36
v 0.1 0 0.12676192474365236
v 0.1 0 0.36
v 0 0 0.36
v 0.1 0.9 0.36
v 0 0.9 0.36
v 0.1 0 0.12676192474365236
v 0 0 0.12676192474365236
v 0.1 0 0.36
v 0 0 0.36
v 0.1 0.9 0.12676192474365236
v 0 0.9 0.12676192474365236
v 0.1 0 0.12676192474365236
v 0 0 0.12676192474365236
v 0.1 0.9 0.36
v 0 0.9 0.36
v 0.1 0.9 0.12676192474365236
v 0 0.9 0.12676192474365236
v 0 0.9 0.36
v 0 0.9 0.12676192474365236
v 0 0 0.36
v 0 0 0.12676192474365236
f 74 73 75 76
f 78 77 79 80
f 82 81 83 84
f 86 85 87 88
f 90 89 91 92
f 94 96 95 93
