# Houscaper tile from 22.3dm Cube Frame group 235
# signature 01110100 variant 3
g blank_1
v 0.22500013367099747 0.2249998663289989 0.405
v 1.3367099745664745E-07 0.2249998663289989 0.405
v 1.3367099745664745E-07 0.899999866328999 0.405
v 0.9000001336709975 0.899999866328999 0.405
v 0.9000001336709975 0.6749998663289989 0.405
v 0.22500013367099747 0.6749998663289989 0.405
f 3 4 5 6
f 6 1 2 3
g blank_2
v 0.9000001336709975 0.6749998663289989 0.54
v 0.9000001336709975 0.6749998663289989 0.405
v 0.22500013367099747 0.6749998663289989 0.54
v 0.22500013367099747 0.6749998663289989 0.405
v 0.22500013367099747 0.6749998663289989 0.54
v 0.22500013367099747 0.6749998663289989 0.405
v 0.22500013367099747 -1.3367100109462627E-07 0.54
v 0.22500013367099747 0.2249998663289989 0.405
v 0.22500013367099747 -1.3367100109462627E-07 0.405
f 8 7 9 10
f 14 12 11 13
f 15 14 13
g blank_3
v 1.3367099745664745E-07 0.2249998663289989 0.405
v 0.05625013367099746 0.1687498663289989 0.405
v 0.11250013367099745 0.1124998663289989 0.405
v 0.16875013367099745 0.05624986632899891 0.405
v 0.22500013367099747 -1.3367100109462627E-07 0.405
v 0.05625013367099746 0.2249998663289989 0.405
v 0.11250013367099745 0.1687498663289989 0.405
v 0.16875013367099745 0.1124998663289989 0.405
v 0.11250013367099745 0.2249998663289989 0.405
v 0.16875013367099745 0.1687498663289989 0.405
v 0.16875013367099745 0.2249998663289989 0.405
v 0.22500013367099747 0.2249998663289989 0.405
f 22 17 16 21
f 23 18 17 22
f 25 22 21 24
f 23 19 18
f 19 23 20
f 25 24 26
f 27 23 25
f 25 23 22
f 26 27 25
f 20 23 27
g blank_4
v 1.3367099745664745E-07 0.2249998663289989 0.405
v 1.3367099745664745E-07 0.2249998663289989 0
v 0.11250013367099745 0.1124998663289989 0.405
v 0.11250013367099745 0.1124998663289989 0
v 0.22500013367099747 -1.3367100109462627E-07 0.405
v 0.22500013367099747 -1.3367100109462627E-07 0
f 31 29 28 30
f 33 31 30 32
