v 0.44999695 0.049999237 0.6532381
v 0.44999695 0.049999237 0.54
v 0.44999695 -0.14999962 0.6532381
v 0.44999695 -0.35000038 0.53323805
v 0.44999695 -0.35000038 0.47323808
v 0.44999695 -0.35000038 0.29999998
v 0.44999695 -0.35000038 0.24000001
v 0.44999695 -0.45000076 0.47323808
v 0.44999695 -0.45000076 0.24000001
v 0.34999084 0.049999237 0.6532381
v 0.34999084 0.049999237 0.54
v 0.34999084 -0.14999962 0.6532381
v 0.34999084 -0.35000038 0.53323805
v 0.34999084 -0.35000038 0.41323808
v 0.34999084 -0.35000038 0.29999998
v 0.34999084 -0.44909668 0.47378087
v 0.34999084 -0.45000076 0.41323808
v 0.05000305 0.45000076 0.6532381
v 0.05000305 0.45000076 0.54
v 0.05000305 0.35000038 0.6532381
v 0.05000305 0.35000038 0.54
v 0.05000305 -0.35000038 0.113238074
v 0.05000305 -0.35000038 0
v 0.05000305 -0.45000076 0.113238074
v 0.05000305 -0.45000076 0
v -0.15000916 0.45000076 0.6532381
v -0.15000916 0.35000038 0.6532381
v -0.15000916 -0.35000038 0.113238074
v -0.15000916 -0.45000076 0.113238074
v -0.3500061 0.45000076 0.53323805
v -0.3500061 0.45000076 0.47323808
v -0.3500061 0.45000076 0.29999998
v -0.3500061 0.45000076 0.24000001
v -0.3500061 0.35000038 0.53323805
v -0.3500061 0.35000038 0.41323808
v -0.3500061 0.35000038 0.29999998
v -0.3500061 0.049999237 0.113238074
v -0.3500061 0.049999237 0
v -0.3500061 -0.14999962 0.113238074
v -0.44909668 0.35000038 0.47378087
v -0.44999695 0.45000076 0.47323808
v -0.44999695 0.45000076 0.24000001
v -0.44999695 0.35000038 0.41323808
v -0.44999695 0.049999237 0.113238074
v -0.44999695 0.049999237 0
v -0.44999695 -0.14999962 0.113238074
vn 1 0 0
vn 0.70710677 0.3638037 -0.6063389
vn 0.8944272 -0.2300889 0.38348284
vn 0.70710707 -0.36380187 0.6063397
vn 1 0 0
vn 0.9169636 0.34718445 -0.1965724
vn 0.43667156 0.86498076 -0.2472373
vn 0.59903586 -0.756478 0.26248246
vn 0.627489 -0.7486442 -0.21398483
vn -1 0 0
vn -0.8944272 0.23008968 -0.3834824
vn -0.8944272 -0.2300889 0.38348284
vn -0.70710653 -0.36380213 0.6063401
vn -0.9484833 0.2911916 0.124847375
vn -0.2664349 0.9363844 -0.22846597
vn -0.7544655 -0.56871235 0.32764015
vn -0.34876326 -0.9156827 0.19972338
vn 0 1 0
vn 0.23008563 0.8944272 -0.3834848
vn 0 -1 0
vn 0.23008563 -0.8944272 -0.3834848
vn 0 1 0
vn 0.36380756 0.70710677 -0.6063366
vn 0 -1 0
vn 0.36380756 -0.70710677 -0.6063366
vn -0.23009212 0.8944272 0.3834809
vn -0.23009212 -0.8944272 0.3834809
vn -0.36380345 0.70710677 0.60633904
vn -0.36380345 -0.70710677 0.60633904
vn -0.36381382 0.70710874 0.6063306
vn 0 1 0
vn 0.4366679 0.8649818 -0.24724008
vn 0.86498123 0.43666974 -0.24723868
vn -0.3638158 -0.7071048 0.6063339
vn 0.2911916 -0.9484833 0.124847375
vn 0.9363838 -0.2664354 -0.22846787
vn 1 0 0
vn 0.70710677 0.3638024 -0.60633963
vn 0.70710677 -0.36380345 0.60633904
vn -0.5687333 -0.75446045 0.3276154
vn -0.8504556 0.4818312 0.21110189
vn -0.6014398 0.7561585 -0.25786543
vn -0.86307734 -0.4382973 0.25098413
vn -1 0 0
vn -0.70710677 0.3638024 -0.60633963
vn -0.70710677 -0.36380345 0.60633904
f 33//33 38//38 45//45 42//42
f 36//36 35//35 37//37
f 39//39 37//37 35//35
f 33//33 37//37 38//38
f 33//33 32//32 36//36
f 37//37 33//33 36//36
f 42//42 45//45 44//44
f 41//41 42//42 44//44
f 44//44 46//46 43//43
f 44//44 43//43 41//41
f 18//18 19//19 31//31
f 32//32 31//31 19//19
f 26//26 31//31 30//30
f 18//18 31//31 26//26
f 26//26 30//30 34//34 27//27
f 41//41 30//30 31//31
f 32//32 42//42 41//41 31//31
f 33//33 42//42 32//32
f 21//21 36//36 32//32 19//19
f 27//27 34//34 35//35
f 20//20 27//27 35//35
f 20//20 35//35 21//21
f 36//36 21//21 35//35
f 43//43 46//46 39//39 35//35
f 43//43 40//40 41//41
f 35//35 40//40 43//43
f 40//40 35//35 34//34
f 41//41 40//40 34//34 30//30
f 7//7 9//9 25//25 23//23
f 15//15 22//22 14//14
f 28//28 14//14 22//22
f 7//7 23//23 22//22
f 7//7 15//15 6//6
f 22//22 15//15 7//7
f 9//9 24//24 25//25
f 17//17 24//24 9//9
f 24//24 17//17 29//29
f 9//9 8//8 17//17
f 2//2 1//1 6//6
f 5//5 6//6 1//1
f 3//3 4//4 5//5
f 1//1 3//3 5//5
f 3//3 12//12 13//13 4//4
f 8//8 5//5 4//4
f 6//6 5//5 8//8 9//9
f 7//7 6//6 9//9
f 11//11 2//2 6//6 15//15
f 12//12 14//14 13//13
f 10//10 14//14 12//12
f 10//10 11//11 14//14
f 15//15 14//14 11//11
f 17//17 14//14 28//28 29//29
f 17//17 8//8 16//16
f 14//14 17//17 16//16
f 16//16 13//13 14//14
f 8//8 4//4 13//13 16//16
