v 0.33749961853027344 0.4500007629394531 0.13500000536441803
v 0.33749961853027344 0.22500038146972656 0.13500000536441803
v 0.33749961853027344 0.22500038146972656 5.684336465069939E-16
v -0.33749961853027344 0.4500007629394531 0.5400000214576721
v -0.33749961853027344 0.4500007629394531 0.13500000536441803
v -0.33749961853027344 0.22500038146972656 0.13500000536441803
v -0.33749961853027344 0.22500038146972656 5.684336465069939E-16
v -0.33749961853027344 -0.4500007629394531 0.5400000214576721
v -0.33749961853027344 -0.4500007629394531 0.13500000536441803
v -0.33749961853027344 -0.4500007629394531 0
vn 0 0 1
vn 0 -0.7071067690849304 0.7071067690849304
vn 0 -1 0
vn 1 0 0
vn 0.7071067690849304 0 0.7071067690849304
vn 0.9045340418815613 -0.30151134729385376 0.30151134729385376
vn 0.7071067690849304 -0.7071067690849304 0
vn 1 0 0
vn 1 0 0
vn 1 0 0
f 9//9 6//6 4//4 8//8
f 4//4 6//6 5//5
f 3//3 2//2 6//6 7//7
f 10//10 7//7 6//6 9//9
f 2//2 1//1 5//5 6//6
