v -0.45 -0.45 0
v 0.45 -0.45 0
v 0.45 -0.38 0
v -0.45 -0.38 0
v -0.45 -0.45 0.12
v 0.45 -0.45 0.12
v 0.45 -0.38 0.12
v -0.45 -0.38 0.12
v -0.45 -0.45 0.42
v 0.45 -0.45 0.42
v 0.45 -0.38 0.42
v -0.45 -0.38 0.42
v -0.45 -0.45 0.54
v 0.45 -0.45 0.54
v 0.45 -0.38 0.54
v -0.45 -0.38 0.54
v -0.45 -0.45 0.12
v -0.28 -0.45 0.12
v -0.28 -0.38 0.12
v -0.45 -0.38 0.12
v -0.45 -0.45 0.42
v -0.28 -0.45 0.42
v -0.28 -0.38 0.42
v -0.45 -0.38 0.42
v 0.28 -0.45 0.12
v 0.45 -0.45 0.12
v 0.45 -0.38 0.12
v 0.28 -0.38 0.12
v 0.28 -0.45 0.42
v 0.45 -0.45 0.42
v 0.45 -0.38 0.42
v 0.28 -0.38 0.42
v -0.025 -0.45 0.12
v 0.025 -0.45 0.12
v 0.025 -0.38 0.12
v -0.025 -0.38 0.12
v -0.025 -0.45 0.42
v 0.025 -0.45 0.42
v 0.025 -0.38 0.42
v -0.025 -0.38 0.42
v -0.28 -0.45 0.255
v 0.28 -0.45 0.255
v 0.28 -0.38 0.255
v -0.28 -0.38 0.255
v -0.28 -0.45 0.285
v 0.28 -0.45 0.285
v 0.28 -0.38 0.285
v -0.28 -0.38 0.285
v -0.45 -0.38 0
v -0.38 -0.38 0
v -0.38 0.45 0
v -0.45 0.45 0
v -0.45 -0.38 0.54
v -0.38 -0.38 0.54
v -0.38 0.45 0.54
v -0.45 0.45 0.54
v 0.38 -0.38 0
v 0.45 -0.38 0
v 0.45 0.45 0
v 0.38 0.45 0
v 0.38 -0.38 0.54
v 0.45 -0.38 0.54
v 0.45 0.45 0.54
v 0.38 0.45 0.54
v -0.38 0.38 0
v 0.38 0.38 0
v 0.38 0.45 0
v -0.38 0.45 0
v -0.38 0.38 0.07
v 0.38 0.38 0.07
v 0.38 0.45 0.07
v -0.38 0.45 0.07
v -0.28 -0.43 0.12
v 0.28 -0.43 0.12
v 0.28 -0.42000000000000004 0.12
v -0.28 -0.42000000000000004 0.12
v -0.28 -0.43 0.42
v 0.28 -0.43 0.42
v 0.28 -0.42000000000000004 0.42
v -0.28 -0.42000000000000004 0.42
f 1 2 3 4
f 5 8 7 6
f 1 5 6 2
f 3 7 8 4
f 1 4 8 5
f 2 6 7 3
f 9 10 11 12
f 13 16 15 14
f 9 13 14 10
f 11 15 16 12
f 9 12 16 13
f 10 14 15 11
f 17 18 19 20
f 21 24 23 22
f 17 21 22 18
f 19 23 24 20
f 17 20 24 21
f 18 22 23 19
f 25 26 27 28
f 29 32 31 30
f 25 29 30 26
f 27 31 32 28
f 25 28 32 29
f 26 30 31 27
f 33 34 35 36
f 37 40 39 38
f 33 37 38 34
f 35 39 40 36
f 33 36 40 37
f 34 38 39 35
f 41 42 43 44
f 45 48 47 46
f 41 45 46 42
f 43 47 48 44
f 41 44 48 45
f 42 46 47 43
f 49 50 51 52
f 53 56 55 54
f 49 53 54 50
f 51 55 56 52
f 49 52 56 53
f 50 54 55 51
f 57 58 59 60
f 61 64 63 62
f 57 61 62 58
f 59 63 64 60
f 57 60 64 61
f 58 62 63 59
f 65 66 67 68
f 69 72 71 70
f 65 69 70 66
f 67 71 72 68
f 65 68 72 69
f 66 70 71 67
f 73 74 75 76
f 77 80 79 78
f 73 77 78 74
f 75 79 80 76
f 73 76 80 77
f 74 78 79 75
